<?xml version="1.0" encoding="UTF-8" standalone="no"?>
<!-- Generator: $$$/GeneralStr/196=Adobe Illustrator 27.6.0, SVG Export Plug-In . SVG Version: 6.00 Build 0)  -->

<svg
   version="1.1"
   x="0px"
   y="0px"
   viewBox="0 0 737 510.2"
   style="enable-background:new 0 0 737 510.2;"
   xml:space="preserve"
   id="svg19"
   xmlns="http://www.w3.org/2000/svg"
   xmlns:svg="http://www.w3.org/2000/svg"><defs
   id="defs19"><filter
     style="color-interpolation-filters:sRGB;"
     id="filter23"
     x="0"
     y="0"
     width="1"
     height="1"><feColorMatrix
       type="hueRotate"
       values="180"
       result="color1"
       id="feColorMatrix22" /><feColorMatrix
       values="-1 0 0 0 1 0 -1 0 0 1 0 0 -1 0 1 -0.21 -0.72 -0.07 2 0 "
       result="color2"
       id="feColorMatrix23" /></filter></defs>
<g
   id="Ebene_4">
</g>
<g
   id="Ebene_3"
   style="filter:url(#filter23)">
	<g
   id="g3">
		<path
   d="M441.6,37.8h23.8l32.9,99.9h-26.5l-5.7-19.6h-25.3l-5.6,19.6h-26.6L441.6,37.8z M461.9,99.9l-8.4-31l-8.8,31H461.9z"
   id="path1" />
		<path
   d="M507.6,137.7V37.8h40.9c4.6,0,8.9,1,12.8,3c3.9,2,7.3,4.6,10.1,7.9c2.8,3.2,5,6.9,6.6,11.1c1.6,4.2,2.4,8.4,2.4,12.6    c0,4.4-0.8,8.7-2.3,12.9c-1.5,4.2-3.6,7.9-6.3,11.1c-2.7,3.2-6,5.8-9.9,7.7c-3.9,1.9-8.1,2.9-12.8,2.9h-15.5v30.7H507.6z     M533.6,83.1h13.8c1.6,0,3.1-0.8,4.5-2.3c1.4-1.5,2.1-4.3,2.1-8.4c0-4.1-0.8-6.9-2.4-8.4c-1.6-1.5-3.2-2.3-4.8-2.3h-13.1V83.1z"
   id="path2" />
		<path
   d="M589.7,137.7V37.8h40.9c4.6,0,8.9,1,12.8,3c3.9,2,7.3,4.6,10.1,7.9c2.8,3.2,5,6.9,6.6,11.1c1.6,4.2,2.4,8.4,2.4,12.6    c0,4.4-0.8,8.7-2.3,12.9c-1.5,4.2-3.6,7.9-6.3,11.1c-2.7,3.2-6,5.8-9.9,7.7c-3.9,1.9-8.1,2.9-12.8,2.9h-15.5v30.7H589.7z     M615.8,83.1h13.8c1.6,0,3.1-0.8,4.5-2.3c1.4-1.5,2.1-4.3,2.1-8.4c0-4.1-0.8-6.9-2.4-8.4c-1.6-1.5-3.2-2.3-4.8-2.3h-13.1V83.1z"
   id="path3" />
	</g>
	<g
   id="g7">
		<path
   d="M408.6,253.7v-99.9h26.1v76h43v23.9H408.6z"
   id="path4" />
		<path
   d="M486.2,253.7v-99.9h26.1v99.9H486.2z"
   id="path5" />
		<path
   d="M520.8,202.9c0-6.1,1.1-12.1,3.3-18c2.2-5.9,5.4-11.2,9.6-15.9c4.2-4.7,9.3-8.5,15.2-11.4c6-2.9,12.8-4.4,20.4-4.4    c9.2,0,17.1,2,23.9,6c6.7,4,11.7,9.3,15,15.8L588.3,190c-0.9-2.4-2.1-4.5-3.5-6c-1.5-1.6-3.1-2.9-4.9-3.8c-1.8-0.9-3.6-1.6-5.5-2    c-1.9-0.4-3.8-0.6-5.5-0.6c-3.7,0-7,0.8-9.7,2.3c-2.7,1.5-4.9,3.6-6.7,6c-1.7,2.5-3,5.3-3.9,8.4c-0.8,3.1-1.3,6.3-1.3,9.4    c0,3.5,0.5,6.8,1.5,10c1,3.2,2.4,6,4.3,8.4c1.9,2.4,4.2,4.4,6.9,5.8c2.7,1.5,5.8,2.2,9.2,2.2c1.8,0,3.6-0.2,5.5-0.6    c1.9-0.4,3.7-1.1,5.4-2.1c1.7-1,3.3-2.3,4.7-3.8c1.4-1.5,2.5-3.4,3.3-5.7l21.2,13.4c-1.4,3.7-3.6,6.9-6.5,9.8    c-2.9,2.9-6.2,5.3-9.9,7.3c-3.7,2-7.7,3.5-11.9,4.5c-4.2,1-8.4,1.5-12.4,1.5c-7,0-13.5-1.5-19.3-4.4c-5.8-3-10.9-6.9-15.1-11.7    c-4.2-4.9-7.5-10.4-9.8-16.6C521.9,215.6,520.8,209.3,520.8,202.9z"
   id="path6" />
		<path
   d="M644.6,153.8h23.8l32.9,99.9h-26.5l-5.7-19.6h-25.3l-5.6,19.6h-26.6L644.6,153.8z M665,215.9l-8.4-31l-8.8,31H665z"
   id="path7" />
	</g>
	<g
   id="g12">
		<path
   d="M489.3,294h-27.3v76H436v-76h-27.4v-23.9h80.7V294z"
   id="path8" />
		<path
   d="M498.4,370v-99.9h26.1V370H498.4z"
   id="path9" />
		<path
   d="M560.9,270.1l18.6,65.4l18.3-65.4h27.4L590.3,370h-21.7l-35.3-99.9H560.9z"
   id="path10" />
		<g
   id="g11">
			<path
   d="M702,346.1V370l-67.9,0v-99.9l67.9,0V294l-41.8,0v14.1h34.5v22.2h-34.5v15.8L702,346.1z"
   id="path11" />
		</g>
	</g>
	<g
   id="g13">
		<polygon
   points="35,322.5 57,295.6 57,272.7 163.3,154.8 201.2,112.8 239.1,154.8 345.1,272.3 345.1,295.5 367.1,322.5     367.1,37.8 35,37.8   "
   id="polygon12" />
		<polygon
   points="59.2,370 342.9,370 342.9,351 216.6,212.5 233.4,193.5 232.2,192.3 201.6,192.4 133.7,269.1 59.2,351.6   "
   id="polygon13" />
	</g>
	<g
   id="g19">
		<path
   d="M424.6,455.1c-6.5,0-11.9-2.3-16.1-6.8l1.2-1.1c2.2,2.1,4.4,3.7,6.8,4.7c2.4,1,5,1.5,8.1,1.5c4.2,0,7.5-0.9,10.1-2.7    c2.6-1.8,3.9-4.3,3.9-7.5c0-1.5-0.3-2.8-1-3.8c-0.6-1-1.6-1.9-2.8-2.6c-1.2-0.7-2.8-1.4-4.6-1.9c-1.8-0.5-3.9-1-6.2-1.6    c-2.3-0.5-4.2-1-5.9-1.5c-1.7-0.5-3.1-1-4.2-1.7c-1.1-0.7-1.9-1.6-2.5-2.6c-0.6-1.1-0.9-2.4-0.9-4.1c0-2.1,0.4-3.9,1.2-5.4    c0.8-1.5,1.9-2.7,3.2-3.7c1.4-1,2.9-1.7,4.7-2.2c1.8-0.5,3.7-0.7,5.7-0.7c3.4,0,6.3,0.6,8.7,1.7c2.4,1.2,4.1,2.6,5,4.3l-1.5,0.6    c-1-1.7-2.7-2.9-5-3.8c-2.3-0.9-4.8-1.3-7.5-1.3c-1.7,0-3.4,0.2-5,0.6c-1.6,0.4-3,1-4.1,1.8c-1.2,0.8-2.1,1.9-2.8,3.1    c-0.7,1.3-1,2.8-1,4.6c0,1.4,0.2,2.6,0.7,3.5c0.5,0.9,1.2,1.6,2.2,2.2c1,0.6,2.2,1.1,3.7,1.5c1.5,0.4,3.3,0.9,5.4,1.4    c2.5,0.6,4.8,1.2,6.8,1.7s3.7,1.2,5.1,2c1.4,0.8,2.4,1.8,3.2,3c0.8,1.2,1.1,2.7,1.1,4.5c0,1.8-0.4,3.5-1.1,5    c-0.8,1.5-1.8,2.8-3.2,3.8c-1.4,1.1-3,1.9-5,2.4C429.1,454.8,426.9,455.1,424.6,455.1z"
   id="path13" />
		<path
   d="M453.3,470.8c0.9,0,1.7,0,2.4-0.1c0.7-0.1,1.1-0.3,1.4-0.7c0.2-0.2,0.4-0.5,0.6-0.9c0.2-0.5,0.6-1.2,1.1-2.4    c0.5-1.1,1.2-2.7,2-4.6c0.9-2,2-4.6,3.4-7.8l-19.6-42.1h1.8l18.6,40.1l17.6-40.1h1.8l-25.1,57.2c-0.6,1.4-1.5,2.3-2.7,2.6    c-1.1,0.3-2.2,0.4-3.3,0.4V470.8z"
   id="path14" />
		<path
   d="M504.6,455.1c-6.5,0-11.9-2.3-16.1-6.8l1.2-1.1c2.2,2.1,4.4,3.7,6.8,4.7c2.4,1,5,1.5,8.1,1.5c4.2,0,7.5-0.9,10.1-2.7    c2.6-1.8,3.9-4.3,3.9-7.5c0-1.5-0.3-2.8-1-3.8c-0.6-1-1.6-1.9-2.8-2.6c-1.2-0.7-2.8-1.4-4.6-1.9c-1.8-0.5-3.9-1-6.2-1.6    c-2.3-0.5-4.2-1-5.9-1.5c-1.7-0.5-3.1-1-4.2-1.7c-1.1-0.7-1.9-1.6-2.5-2.6c-0.6-1.1-0.9-2.4-0.9-4.1c0-2.1,0.4-3.9,1.2-5.4    c0.8-1.5,1.9-2.7,3.2-3.7c1.4-1,2.9-1.7,4.7-2.2c1.8-0.5,3.7-0.7,5.7-0.7c3.4,0,6.3,0.6,8.7,1.7c2.4,1.2,4.1,2.6,5,4.3l-1.5,0.6    c-1-1.7-2.7-2.9-5-3.8c-2.3-0.9-4.8-1.3-7.5-1.3c-1.7,0-3.4,0.2-5,0.6c-1.6,0.4-3,1-4.1,1.8c-1.2,0.8-2.1,1.9-2.8,3.1    c-0.7,1.3-1,2.8-1,4.6c0,1.4,0.2,2.6,0.7,3.5c0.5,0.9,1.2,1.6,2.2,2.2c1,0.6,2.2,1.1,3.7,1.5c1.5,0.4,3.3,0.9,5.4,1.4    c2.5,0.6,4.7,1.2,6.8,1.7c2,0.5,3.7,1.2,5.1,2c1.4,0.8,2.4,1.8,3.2,3c0.8,1.2,1.1,2.7,1.1,4.5c0,1.8-0.4,3.5-1.1,5    c-0.8,1.5-1.8,2.8-3.2,3.8c-1.4,1.1-3,1.9-5,2.4C509,454.8,506.9,455.1,504.6,455.1z"
   id="path15" />
		<path
   d="M546.9,452.4c-0.8,0.5-1.6,0.9-2.2,1.2c-0.7,0.3-1.5,0.5-2.4,0.8c-0.9,0.2-1.9,0.4-3.1,0.4c-1.9,0-3.7-0.6-5.1-1.8    c-1.5-1.2-2.2-2.8-2.2-4.7v-34.4h-6.1v-1.6h6.1v-14.7h1.6v14.7h10.1v1.6h-10.1v34.4c0.1,1.6,0.7,2.8,1.9,3.6    c1.1,0.8,2.4,1.3,3.8,1.3c0.9,0,1.8-0.1,2.6-0.3c0.8-0.2,1.5-0.4,2.2-0.6c0.6-0.2,1.1-0.5,1.5-0.7c0.4-0.2,0.6-0.4,0.6-0.4    L546.9,452.4z"
   id="path16" />
		<path
   d="M570.6,455.1c-2.8,0-5.4-0.6-7.8-1.7c-2.5-1.2-4.6-2.8-6.5-4.8c-1.8-2-3.3-4.4-4.4-7.1c-1.1-2.7-1.6-5.5-1.6-8.6    c0-3,0.5-5.8,1.5-8.4c1-2.6,2.4-4.9,4.3-6.8c1.8-1.9,3.9-3.5,6.3-4.6c2.4-1.1,5-1.7,7.8-1.7c2.8,0,5.5,0.6,7.9,1.7    c2.5,1.1,4.6,2.7,6.4,4.6c1.8,1.9,3.3,4.2,4.3,6.9c1.1,2.7,1.6,5.5,1.6,8.5v0.9H552c0.2,2.7,0.9,5.2,1.9,7.6    c1.1,2.4,2.4,4.4,4.1,6.1c1.7,1.7,3.6,3.1,5.8,4.1c2.2,1,4.5,1.5,6.9,1.5c1.6,0,3.2-0.2,4.7-0.6c1.5-0.4,3-1,4.3-1.8    c1.4-0.8,2.5-1.7,3.6-2.8c1-1.1,1.8-2.3,2.4-3.6l1.5,0.4c-0.6,1.5-1.4,2.8-2.6,4c-1.1,1.2-2.4,2.3-3.9,3.2    c-1.5,0.9-3.1,1.6-4.9,2.1C574.3,454.9,572.5,455.1,570.6,455.1z M588.8,432.6c-0.2-2.8-0.8-5.4-1.8-7.8c-1-2.4-2.4-4.4-4-6.1    c-1.7-1.7-3.6-3-5.7-4c-2.2-1-4.5-1.5-7-1.5c-2.5,0-4.8,0.5-7,1.5c-2.2,1-4.1,2.3-5.7,4.1c-1.7,1.7-3,3.8-3.9,6.2    c-1,2.4-1.5,5-1.7,7.7H588.8z"
   id="path17" />
		<path
   d="M660.7,454.3h-1.6v-23.5c0-6.1-0.9-10.5-2.7-13.4c-1.8-2.9-4.7-4.3-8.6-4.3c-2,0-3.9,0.4-5.6,1.1c-1.8,0.7-3.4,1.7-4.8,3    c-1.4,1.3-2.7,2.8-3.7,4.6c-1.1,1.8-1.9,3.7-2.4,5.8v26.5h-1.6v-23.5c0-6.1-0.9-10.6-2.7-13.4c-1.8-2.8-4.6-4.3-8.5-4.3    c-1.9,0-3.8,0.4-5.6,1.1c-1.8,0.7-3.4,1.7-4.8,3c-1.4,1.3-2.7,2.8-3.8,4.6c-1.1,1.8-1.9,3.8-2.5,5.9v26.6h-1.6v-42.1h1.6v10.9    c1.8-3.7,4.2-6.5,7-8.5c2.8-2,5.9-3,9.3-3c3.6,0,6.5,1.1,8.8,3.3c2.3,2.2,3.6,5.2,4.1,8.9c4.2-8.2,9.8-12.3,16.9-12.3    c4.4,0,7.6,1.6,9.7,4.7s3.2,8,3.2,14.6V454.3z"
   id="path18" />
		<path
   d="M686.1,455.1c-6.5,0-11.9-2.3-16.1-6.8l1.2-1.1c2.2,2.1,4.4,3.7,6.8,4.7c2.4,1,5,1.5,8.1,1.5c4.2,0,7.5-0.9,10.1-2.7    c2.6-1.8,3.9-4.3,3.9-7.5c0-1.5-0.3-2.8-1-3.8c-0.6-1-1.6-1.9-2.8-2.6c-1.2-0.7-2.8-1.4-4.6-1.9c-1.8-0.5-3.9-1-6.2-1.6    c-2.3-0.5-4.2-1-5.9-1.5c-1.7-0.5-3.1-1-4.2-1.7c-1.1-0.7-1.9-1.6-2.5-2.6c-0.6-1.1-0.9-2.4-0.9-4.1c0-2.1,0.4-3.9,1.2-5.4    c0.8-1.5,1.9-2.7,3.2-3.7c1.4-1,2.9-1.7,4.7-2.2c1.8-0.5,3.7-0.7,5.7-0.7c3.4,0,6.3,0.6,8.7,1.7c2.4,1.2,4.1,2.6,5,4.3l-1.5,0.6    c-1-1.7-2.7-2.9-5-3.8c-2.3-0.9-4.8-1.3-7.5-1.3c-1.7,0-3.4,0.2-5,0.6c-1.6,0.4-3,1-4.1,1.8c-1.2,0.8-2.1,1.9-2.8,3.1    c-0.7,1.3-1,2.8-1,4.6c0,1.4,0.2,2.6,0.7,3.5c0.5,0.9,1.2,1.6,2.2,2.2c1,0.6,2.2,1.1,3.7,1.5c1.5,0.4,3.3,0.9,5.4,1.4    c2.5,0.6,4.7,1.2,6.8,1.7s3.7,1.2,5.1,2c1.4,0.8,2.4,1.8,3.2,3c0.8,1.2,1.1,2.7,1.1,4.5c0,1.8-0.4,3.5-1.1,5    c-0.8,1.5-1.8,2.8-3.2,3.8c-1.4,1.1-3,1.9-5,2.4C690.6,454.8,688.5,455.1,686.1,455.1z"
   id="path19" />
	</g>
</g>
<g
   id="Ebene_2">
</g>
</svg>
