<?xml version="1.0" encoding="UTF-8"?><svg id="Ebene_2" xmlns="http://www.w3.org/2000/svg" viewBox="0 0 160.21 34.37"><defs><style>.cls-1,.cls-2{fill:#fff;}.cls-2{fill-rule:evenodd;}</style></defs><g id="LOGO"><g id="NixCademy_white"><path class="cls-1" d="m31.19,27.22h3.68l-.08.52h-3.11l-.27,1.75h2.78l-.08.52h-2.78l-.27,1.79h3.14l-.08.52h-3.72l.77-5.09Z"/><path class="cls-1" d="m38.99,29.71l-1.51-2.5h.68l1.25,2.08,1.86-2.08h.67l-2.26,2.49,1.56,2.6h-.68l-1.3-2.19-1.96,2.19h-.66l2.35-2.6Z"/><path class="cls-1" d="m44.67,27.22h1.91c.29,0,.54.04.76.11.22.08.41.18.56.32.15.14.25.31.31.5.06.2.07.42.03.68h0c-.04.29-.13.53-.27.74-.14.21-.31.38-.51.52-.2.14-.43.25-.68.32-.25.07-.52.1-.79.1h-1.24l-.27,1.8h-.58l.77-5.09Zm1.42,2.78c.21,0,.4-.03.58-.08.18-.05.34-.13.48-.23.14-.1.25-.22.34-.35.09-.14.14-.29.17-.46h0c.05-.38-.03-.66-.25-.84-.22-.19-.54-.28-.95-.28h-1.29l-.34,2.25h1.26Z"/><path class="cls-1" d="m51.17,27.22h3.68l-.08.52h-3.11l-.27,1.75h2.78l-.08.52h-2.78l-.27,1.79h3.14l-.08.52h-3.72l.77-5.09Z"/><path class="cls-1" d="m57.64,27.22h2.19c.31,0,.59.04.82.13s.42.21.55.38c.11.12.18.27.22.44.04.17.05.36.02.56h0c-.03.23-.1.42-.19.59-.09.17-.21.31-.35.44-.14.12-.3.23-.49.31-.18.08-.38.14-.58.17l1.25,2.08h-.71l-1.18-1.98h-1.46l-.3,1.98h-.58l.77-5.09Zm1.75,2.6c.19,0,.37-.02.54-.07s.32-.12.45-.21c.13-.09.24-.2.32-.33.08-.13.14-.28.17-.44h0c.05-.33-.03-.58-.23-.75-.2-.18-.51-.26-.92-.26h-1.58l-.31,2.07h1.57Z"/><path class="cls-1" d="m65.73,27.75h-1.71l.08-.53h3.99l-.08.53h-1.71l-.69,4.56h-.57l.69-4.56Z"/><path class="cls-1" d="m75.02,27.22h3.68l-.08.52h-3.11l-.26,1.75h2.78l-.08.52h-2.78l-.27,1.79h3.14l-.08.52h-3.72l.77-5.09Z"/><path class="cls-1" d="m81.49,27.22h1.77c.4,0,.75.06,1.07.19.31.13.57.31.78.54.21.23.35.5.43.8.08.31.1.64.05,1h0c-.05.37-.17.71-.35,1.02-.18.31-.4.58-.68.81-.27.23-.59.41-.94.54-.35.13-.73.2-1.12.2h-1.77l.77-5.09Zm1.08,4.56c.32,0,.62-.05.89-.15.28-.1.52-.24.73-.42.21-.18.38-.39.52-.64.14-.25.23-.51.27-.79h0c.04-.3.03-.56-.03-.8-.06-.25-.17-.46-.33-.64-.15-.18-.35-.33-.6-.43-.25-.1-.53-.16-.85-.16h-1.19l-.61,4.03h1.19Z"/><path class="cls-1" d="m90.09,32.39c-.32,0-.6-.05-.84-.14-.24-.09-.45-.24-.61-.42s-.27-.42-.33-.69c-.06-.28-.06-.59,0-.95l.45-2.96h.57l-.44,2.92c-.08.55-.01.98.22,1.27.23.3.59.44,1.08.44s.87-.14,1.18-.42c.32-.28.52-.7.6-1.26l.45-2.96h.57l-.44,2.92c-.06.37-.16.7-.3.98-.14.28-.32.52-.54.71-.22.19-.46.33-.73.43-.27.09-.57.14-.89.14Z"/><path class="cls-1" d="m97.59,32.4c-.37,0-.7-.07-.99-.2-.29-.14-.53-.32-.72-.56-.19-.23-.33-.51-.41-.83-.08-.32-.09-.66-.04-1.03h0c.05-.37.17-.71.35-1.03.18-.32.4-.6.66-.84.27-.24.57-.43.9-.57.34-.14.69-.21,1.06-.21.23,0,.44.02.62.06.18.04.35.09.5.16.15.07.29.16.41.25.12.1.23.21.34.33l-.46.42c-.19-.2-.4-.37-.63-.5-.23-.13-.52-.2-.87-.2-.28,0-.55.05-.81.16-.26.11-.49.25-.69.44-.21.19-.38.41-.52.67-.14.25-.23.53-.27.82h0c-.04.31-.04.59.02.84.06.25.17.48.31.67.15.19.33.34.56.45.22.11.48.16.76.16.35,0,.66-.06.93-.19.27-.13.55-.31.82-.54l.32.37c-.15.13-.31.26-.47.37-.16.11-.33.2-.5.28-.18.08-.36.14-.56.18-.2.04-.41.06-.64.06Z"/><path class="cls-1" d="m104.98,27.18h.54l1.54,5.13h-.62l-.39-1.35h-2.77l-.81,1.35h-.59l3.1-5.13Zm.92,3.27l-.76-2.6-1.56,2.6h2.32Z"/><path class="cls-1" d="m111.12,27.75h-1.71l.08-.53h3.99l-.08.53h-1.71l-.69,4.56h-.57l.69-4.56Z"/><path class="cls-1" d="m116.18,27.22h.57l-.77,5.09h-.57l.77-5.09Z"/><path class="cls-1" d="m121.49,32.4c-.39,0-.73-.07-1.03-.21-.3-.14-.54-.33-.73-.57-.19-.24-.33-.52-.4-.84-.08-.32-.09-.65-.03-1h0c.05-.36.17-.7.34-1.02.17-.32.39-.6.66-.84s.57-.43.91-.58c.34-.14.71-.21,1.09-.21s.73.07,1.03.21c.3.14.54.33.73.57.19.24.33.52.4.84.08.32.09.65.03,1,0,0,0,0,0,.01-.05.35-.17.68-.34,1-.17.32-.39.6-.66.84-.26.24-.57.43-.91.57s-.71.21-1.09.21Zm.09-.53c.29,0,.57-.05.83-.16.26-.11.49-.26.7-.45.2-.19.37-.41.51-.66.14-.25.23-.52.27-.81h0c.04-.31.04-.58-.03-.83-.06-.25-.17-.48-.32-.67-.15-.19-.34-.34-.57-.45-.23-.11-.49-.17-.78-.17s-.57.05-.83.16c-.26.11-.49.26-.7.45-.2.19-.37.41-.51.66-.14.25-.23.52-.27.81h0c-.04.31-.04.58.03.83.06.25.17.48.32.67.15.19.34.34.57.45s.49.17.78.17Z"/><path class="cls-1" d="m127.75,27.22h.54l2.59,4.08.62-4.08h.56l-.77,5.09h-.46l-2.66-4.17-.63,4.17h-.56l.77-5.09Z"/><path class="cls-1" d="m33.66,10.64h3.49l4.48,7.13,1.08-7.13h3.68l-2.04,13.48h-3.28l-4.65-7.4-1.12,7.4h-3.68l2.04-13.48Z"/><path class="cls-1" d="m49.57,10.64h3.76l-2.04,13.48h-3.76l2.04-13.48Z"/><path class="cls-1" d="m59.12,17.27l-3.43-6.63h4.3l1.81,3.79,2.98-3.79h4.2l-5.43,6.59,3.58,6.89h-4.3l-1.97-4.06-3.21,4.06h-4.2l5.66-6.86Z"/><path class="cls-1" d="m75.52,24.4c-.96,0-1.84-.17-2.64-.52-.8-.35-1.46-.83-1.99-1.45-.53-.62-.91-1.36-1.15-2.21-.24-.85-.28-1.78-.13-2.78v-.04c.15-.98.47-1.89.96-2.74.49-.85,1.09-1.6,1.82-2.23.72-.64,1.55-1.13,2.47-1.49.92-.36,1.89-.54,2.92-.54.69,0,1.31.07,1.86.2.54.13,1.03.33,1.46.58.43.25.81.55,1.14.9.33.35.61.73.84,1.14l-3.14,2.18c-.31-.49-.68-.87-1.1-1.16-.42-.28-.96-.42-1.61-.42-.47,0-.92.09-1.34.28-.42.19-.8.44-1.13.76-.33.32-.61.7-.84,1.14-.23.44-.38.9-.45,1.39v.04c-.08.5-.07.97.02,1.42.09.44.26.83.49,1.15.23.32.53.58.9.76.36.19.78.28,1.26.28.35,0,.67-.04.97-.12.3-.08.58-.19.84-.34s.51-.32.75-.52c.24-.2.48-.42.73-.66l2.51,2c-.39.44-.8.84-1.23,1.21-.43.37-.91.69-1.44.96-.52.27-1.09.48-1.71.64-.62.15-1.3.23-2.05.23Z"/><path class="cls-1" d="m90.15,10.55h3.6l3.69,13.58h-4.01l-.62-2.41h-5.2l-1.33,2.41h-3.93l7.79-13.58Zm2.02,8.28l-.92-3.83-2.1,3.83h3.02Z"/><path class="cls-1" d="m101.22,10.64h5.2c1.21,0,2.26.16,3.15.49.89.33,1.62.79,2.18,1.38.56.59.95,1.29,1.16,2.11.22.82.25,1.71.1,2.69v.04c-.15.98-.46,1.88-.93,2.71-.47.83-1.08,1.54-1.83,2.15-.75.6-1.62,1.08-2.63,1.42-1.01.34-2.12.51-3.32.51h-5.12l2.04-13.48Zm3.73,10.17c1.12,0,2.07-.3,2.84-.89.77-.59,1.24-1.43,1.41-2.52v-.04c.17-1.08-.05-1.92-.64-2.51-.59-.6-1.45-.9-2.57-.9h-1.53l-1.04,6.86h1.53Z"/><path class="cls-1" d="m116.52,10.64h10.83l-.48,3.18h-7.15l-.31,2.04h6.47l-.45,2.95h-6.47l-.32,2.14h7.24l-.48,3.18h-10.92l2.04-13.48Z"/><path class="cls-1" d="m130.21,10.64h3.95l2.43,5.22,4.01-5.22h3.95l-2.04,13.48h-3.72l1.17-7.74-4.24,5.28h-.08l-2.63-5.24-1.17,7.7h-3.68l2.04-13.48Z"/><path class="cls-1" d="m150.05,19.08l-3.85-8.44h4.26l2.03,4.91,3.54-4.91h4.18l-6.39,8.38-.77,5.1h-3.76l.76-5.05Z"/><path id="path3336-6" class="cls-2" d="m12.09,17.61l9.65,16.72-4.44.04-2.58-4.49-2.59,4.47h-2.2s-1.13-1.95-1.13-1.95l3.7-6.36-2.62-4.57,2.22-3.86Z"/><g id="use3439-6"><path id="path3336-6-2" class="cls-2" d="m15.57,10.72L5.92,27.44l-2.25-3.82,2.6-4.48H1.1s-1.1-1.92-1.1-1.92l1.12-1.95,7.35.02,2.64-4.56h4.45Z"/></g><path id="path4260-0" class="cls-2" d="m12.09,17.61l9.65,16.72-4.44.04-2.58-4.49-2.59,4.47h-2.2s-1.13-1.95-1.13-1.95l3.7-6.36-2.62-4.57,2.22-3.86Z"/><g id="use4354-5"><path id="path4260-0-2" class="cls-2" d="m23.28,10.24H3.98s2.18-3.86,2.18-3.86h5.18s-2.57-4.47-2.57-4.47L9.87,0h2.25s3.66,6.38,3.66,6.38h5.27s2.24,3.86,2.24,3.86Z"/></g><polygon class="cls-2" points="27.98 24.09 16.31 24.08 18.55 27.93 23.82 27.94 26.65 32.89 27.98 24.09"/><polygon class="cls-2" points="29.69 12.78 27.14 8.33 30.84 1.97 29.71 .02 27.5 .02 24.91 4.49 22.33 0 17.9 .04 28.77 18.88 29.69 12.78"/></g></g></svg>