<?xml version="1.0" encoding="UTF-8" standalone="no"?>
<!-- Created with Inkscape (http://www.inkscape.org/) -->

<svg
   width="4096"
   height="2160"
   viewBox="0 0 1083.7333 571.5"
   version="1.1"
   id="svg5"
   inkscape:version="1.2.1 (9c6d41e410, 2022-07-14)"
   sodipodi:docname="wallpaper-color.svg"
   xmlns:inkscape="http://www.inkscape.org/namespaces/inkscape"
   xmlns:sodipodi="http://sodipodi.sourceforge.net/DTD/sodipodi-0.dtd"
   xmlns="http://www.w3.org/2000/svg"
   xmlns:svg="http://www.w3.org/2000/svg">
  <sodipodi:namedview
     id="namedview7"
     pagecolor="#000000"
     bordercolor="#000000"
     borderopacity="0.25"
     inkscape:showpageshadow="2"
     inkscape:pageopacity="1"
     inkscape:pagecheckerboard="0"
     inkscape:deskcolor="#d1d1d1"
     inkscape:document-units="mm"
     showgrid="false"
     inkscape:lockguides="true"
     inkscape:zoom="0.20624341"
     inkscape:cx="1832.7858"
     inkscape:cy="1173.3708"
     inkscape:window-width="1920"
     inkscape:window-height="1011"
     inkscape:window-x="0"
     inkscape:window-y="32"
     inkscape:window-maximized="1"
     inkscape:current-layer="layer1" />
  <defs
     id="defs2">
    <linearGradient
       id="Unbenannter_Verlauf_5"
       x1="332.82001"
       y1="-2257.6299"
       x2="341.66"
       y2="-2272.9099"
       gradientTransform="matrix(0.8,0,0,-0.8,-259.14,-1786.85)"
       gradientUnits="userSpaceOnUse">
      <stop
         offset="0"
         stop-color="#699ad7"
         id="stop184" />
      <stop
         offset=".24"
         stop-color="#7eb1dd"
         id="stop186" />
      <stop
         offset="1"
         stop-color="#7ebae4"
         id="stop188" />
    </linearGradient>
  </defs>
  <g
     inkscape:label="Layer 1"
     inkscape:groupmode="layer"
     id="layer1">
    <g
       id="LOGO"
       transform="matrix(4.1286957,0,0,4.1286957,211.1375,214.79836)">
      <g
         id="NixCademy_color">
        <path
           class="cls-2"
           d="m 31.19,27.22 h 3.68 l -0.08,0.52 h -3.11 l -0.27,1.75 h 2.78 l -0.08,0.52 h -2.78 l -0.27,1.79 h 3.14 l -0.08,0.52 H 30.4 l 0.77,-5.09 z"
           id="path193"
           style="fill:#5277c3" />
        <path
           class="cls-2"
           d="m 38.99,29.71 -1.51,-2.5 h 0.68 l 1.25,2.08 1.86,-2.08 h 0.67 l -2.26,2.49 1.56,2.6 h -0.68 l -1.3,-2.19 -1.96,2.19 h -0.66 l 2.35,-2.6 z"
           id="path195"
           style="fill:#5277c3" />
        <path
           class="cls-2"
           d="m 44.67,27.22 h 1.91 c 0.29,0 0.54,0.04 0.76,0.11 0.22,0.08 0.41,0.18 0.56,0.32 0.15,0.14 0.25,0.31 0.31,0.5 0.06,0.2 0.07,0.42 0.03,0.68 v 0 c -0.04,0.29 -0.13,0.53 -0.27,0.74 -0.14,0.21 -0.31,0.38 -0.51,0.52 -0.2,0.14 -0.43,0.25 -0.68,0.32 -0.25,0.07 -0.52,0.1 -0.79,0.1 h -1.24 l -0.27,1.8 H 43.9 Z M 46.09,30 c 0.21,0 0.4,-0.03 0.58,-0.08 0.18,-0.05 0.34,-0.13 0.48,-0.23 0.14,-0.1 0.25,-0.22 0.34,-0.35 0.09,-0.14 0.14,-0.29 0.17,-0.46 v 0 c 0.05,-0.38 -0.03,-0.66 -0.25,-0.84 -0.22,-0.19 -0.54,-0.28 -0.95,-0.28 h -1.29 l -0.34,2.25 h 1.26 z"
           id="path197"
           style="fill:#5277c3" />
        <path
           class="cls-2"
           d="m 51.17,27.22 h 3.68 l -0.08,0.52 h -3.11 l -0.27,1.75 h 2.78 l -0.08,0.52 h -2.78 l -0.27,1.79 h 3.14 l -0.08,0.52 h -3.72 l 0.77,-5.09 z"
           id="path199"
           style="fill:#5277c3" />
        <path
           class="cls-2"
           d="m 57.64,27.22 h 2.19 c 0.31,0 0.59,0.04 0.82,0.13 0.23,0.09 0.42,0.21 0.55,0.38 0.11,0.12 0.18,0.27 0.22,0.44 0.04,0.17 0.05,0.36 0.02,0.56 v 0 c -0.03,0.23 -0.1,0.42 -0.19,0.59 -0.09,0.17 -0.21,0.31 -0.35,0.44 -0.14,0.12 -0.3,0.23 -0.49,0.31 -0.18,0.08 -0.38,0.14 -0.58,0.17 l 1.25,2.08 h -0.71 l -1.18,-1.98 h -1.46 l -0.3,1.98 h -0.58 l 0.77,-5.09 z m 1.75,2.6 c 0.19,0 0.37,-0.02 0.54,-0.07 0.17,-0.05 0.32,-0.12 0.45,-0.21 0.13,-0.09 0.24,-0.2 0.32,-0.33 0.08,-0.13 0.14,-0.28 0.17,-0.44 v 0 c 0.05,-0.33 -0.03,-0.58 -0.23,-0.75 -0.2,-0.18 -0.51,-0.26 -0.92,-0.26 h -1.58 l -0.31,2.07 h 1.57 z"
           id="path201"
           style="fill:#5277c3" />
        <path
           class="cls-2"
           d="m 65.73,27.75 h -1.71 l 0.08,-0.53 h 3.99 l -0.08,0.53 H 66.3 l -0.69,4.56 h -0.57 z"
           id="path203"
           style="fill:#5277c3" />
        <path
           class="cls-2"
           d="m 75.02,27.22 h 3.68 l -0.08,0.52 h -3.11 l -0.26,1.75 h 2.78 l -0.08,0.52 H 75.17 L 74.9,31.8 h 3.14 l -0.08,0.52 h -3.72 l 0.77,-5.09 z"
           id="path205"
           style="fill:#5277c3" />
        <path
           class="cls-2"
           d="m 81.49,27.22 h 1.77 c 0.4,0 0.75,0.06 1.07,0.19 0.31,0.13 0.57,0.31 0.78,0.54 0.21,0.23 0.35,0.5 0.43,0.8 0.08,0.31 0.1,0.64 0.05,1 v 0 c -0.05,0.37 -0.17,0.71 -0.35,1.02 -0.18,0.31 -0.4,0.58 -0.68,0.81 -0.27,0.23 -0.59,0.41 -0.94,0.54 -0.35,0.13 -0.73,0.2 -1.12,0.2 h -1.77 l 0.77,-5.09 z m 1.08,4.56 c 0.32,0 0.62,-0.05 0.89,-0.15 0.28,-0.1 0.52,-0.24 0.73,-0.42 0.21,-0.18 0.38,-0.39 0.52,-0.64 0.14,-0.25 0.23,-0.51 0.27,-0.79 v 0 c 0.04,-0.3 0.03,-0.56 -0.03,-0.8 -0.06,-0.25 -0.17,-0.46 -0.33,-0.64 -0.15,-0.18 -0.35,-0.33 -0.6,-0.43 -0.25,-0.1 -0.53,-0.16 -0.85,-0.16 h -1.19 l -0.61,4.03 h 1.19 z"
           id="path207"
           style="fill:#5277c3" />
        <path
           class="cls-2"
           d="m 90.09,32.39 c -0.32,0 -0.6,-0.05 -0.84,-0.14 -0.24,-0.09 -0.45,-0.24 -0.61,-0.42 -0.16,-0.18 -0.27,-0.42 -0.33,-0.69 -0.06,-0.28 -0.06,-0.59 0,-0.95 l 0.45,-2.96 h 0.57 l -0.44,2.92 c -0.08,0.55 -0.01,0.98 0.22,1.27 0.23,0.3 0.59,0.44 1.08,0.44 0.49,0 0.87,-0.14 1.18,-0.42 0.32,-0.28 0.52,-0.7 0.6,-1.26 l 0.45,-2.96 h 0.57 l -0.44,2.92 c -0.06,0.37 -0.16,0.7 -0.3,0.98 -0.14,0.28 -0.32,0.52 -0.54,0.71 -0.22,0.19 -0.46,0.33 -0.73,0.43 -0.27,0.09 -0.57,0.14 -0.89,0.14 z"
           id="path209"
           style="fill:#5277c3" />
        <path
           class="cls-2"
           d="m 97.59,32.4 c -0.37,0 -0.7,-0.07 -0.99,-0.2 -0.29,-0.14 -0.53,-0.32 -0.72,-0.56 -0.19,-0.23 -0.33,-0.51 -0.41,-0.83 -0.08,-0.32 -0.09,-0.66 -0.04,-1.03 v 0 c 0.05,-0.37 0.17,-0.71 0.35,-1.03 0.18,-0.32 0.4,-0.6 0.66,-0.84 0.27,-0.24 0.57,-0.43 0.9,-0.57 0.34,-0.14 0.69,-0.21 1.06,-0.21 0.23,0 0.44,0.02 0.62,0.06 0.18,0.04 0.35,0.09 0.5,0.16 0.15,0.07 0.29,0.16 0.41,0.25 0.12,0.1 0.23,0.21 0.34,0.33 l -0.46,0.42 c -0.19,-0.2 -0.4,-0.37 -0.63,-0.5 -0.23,-0.13 -0.52,-0.2 -0.87,-0.2 -0.28,0 -0.55,0.05 -0.81,0.16 -0.26,0.11 -0.49,0.25 -0.69,0.44 -0.21,0.19 -0.38,0.41 -0.52,0.67 -0.14,0.25 -0.23,0.53 -0.27,0.82 v 0 c -0.04,0.31 -0.04,0.59 0.02,0.84 0.06,0.25 0.17,0.48 0.31,0.67 0.15,0.19 0.33,0.34 0.56,0.45 0.22,0.11 0.48,0.16 0.76,0.16 0.35,0 0.66,-0.06 0.93,-0.19 0.27,-0.13 0.55,-0.31 0.82,-0.54 l 0.32,0.37 c -0.15,0.13 -0.31,0.26 -0.47,0.37 -0.16,0.11 -0.33,0.2 -0.5,0.28 -0.18,0.08 -0.36,0.14 -0.56,0.18 -0.2,0.04 -0.41,0.06 -0.64,0.06 z"
           id="path211"
           style="fill:#5277c3" />
        <path
           class="cls-2"
           d="m 104.98,27.18 h 0.54 l 1.54,5.13 h -0.62 l -0.39,-1.35 h -2.77 l -0.81,1.35 h -0.59 z m 0.92,3.27 -0.76,-2.6 -1.56,2.6 z"
           id="path213"
           style="fill:#5277c3" />
        <path
           class="cls-2"
           d="m 111.11,27.75 h -1.71 l 0.08,-0.53 h 3.99 l -0.08,0.53 h -1.71 l -0.69,4.56 h -0.57 z"
           id="path215"
           style="fill:#5277c3" />
        <path
           class="cls-2"
           d="m 116.18,27.22 h 0.57 l -0.77,5.09 h -0.57 z"
           id="path217"
           style="fill:#5277c3" />
        <path
           class="cls-2"
           d="m 121.49,32.4 c -0.39,0 -0.73,-0.07 -1.03,-0.21 -0.3,-0.14 -0.54,-0.33 -0.73,-0.57 -0.19,-0.24 -0.33,-0.52 -0.4,-0.84 -0.08,-0.32 -0.09,-0.65 -0.03,-1 v 0 c 0.05,-0.36 0.17,-0.7 0.34,-1.02 0.17,-0.32 0.39,-0.6 0.66,-0.84 0.27,-0.24 0.57,-0.43 0.91,-0.58 0.34,-0.14 0.71,-0.21 1.09,-0.21 0.38,0 0.73,0.07 1.03,0.21 0.3,0.14 0.54,0.33 0.73,0.57 0.19,0.24 0.33,0.52 0.4,0.84 0.08,0.32 0.09,0.65 0.03,1 0,0 0,0 0,0.01 -0.05,0.35 -0.17,0.68 -0.34,1 -0.17,0.32 -0.39,0.6 -0.66,0.84 -0.26,0.24 -0.57,0.43 -0.91,0.57 -0.34,0.14 -0.71,0.21 -1.09,0.21 z m 0.09,-0.53 c 0.29,0 0.57,-0.05 0.83,-0.16 0.26,-0.11 0.49,-0.26 0.7,-0.45 0.2,-0.19 0.37,-0.41 0.51,-0.66 0.14,-0.25 0.23,-0.52 0.27,-0.81 v 0 c 0.04,-0.31 0.04,-0.58 -0.03,-0.83 -0.06,-0.25 -0.17,-0.48 -0.32,-0.67 -0.15,-0.19 -0.34,-0.34 -0.57,-0.45 -0.23,-0.11 -0.49,-0.17 -0.78,-0.17 -0.29,0 -0.57,0.05 -0.83,0.16 -0.26,0.11 -0.49,0.26 -0.7,0.45 -0.2,0.19 -0.37,0.41 -0.51,0.66 -0.14,0.25 -0.23,0.52 -0.27,0.81 v 0 c -0.04,0.31 -0.04,0.58 0.03,0.83 0.06,0.25 0.17,0.48 0.32,0.67 0.15,0.19 0.34,0.34 0.57,0.45 0.23,0.11 0.49,0.17 0.78,0.17 z"
           id="path219"
           style="fill:#5277c3" />
        <path
           class="cls-2"
           d="m 127.75,27.22 h 0.54 l 2.59,4.08 0.62,-4.08 h 0.56 l -0.77,5.09 h -0.46 l -2.66,-4.17 -0.63,4.17 h -0.56 z"
           id="path221"
           style="fill:#5277c3" />
        <path
           class="cls-1"
           d="m 33.66,10.64 h 3.49 l 4.48,7.13 1.08,-7.13 h 3.68 l -2.04,13.48 h -3.28 l -4.65,-7.4 -1.12,7.4 h -3.68 z"
           id="path223"
           style="fill:#304673" />
        <path
           class="cls-1"
           d="m 49.57,10.64 h 3.76 l -2.04,13.48 h -3.76 z"
           id="path225"
           style="fill:#304673" />
        <path
           class="cls-1"
           d="m 59.12,17.27 -3.43,-6.63 h 4.3 l 1.81,3.79 2.98,-3.79 h 4.2 l -5.43,6.59 3.58,6.89 h -4.3 l -1.97,-4.06 -3.21,4.06 h -4.2 l 5.66,-6.86 z"
           id="path227"
           style="fill:#304673" />
        <path
           class="cls-2"
           d="m 75.52,24.4 c -0.96,0 -1.84,-0.17 -2.64,-0.52 -0.8,-0.35 -1.46,-0.83 -1.99,-1.45 -0.53,-0.62 -0.91,-1.36 -1.15,-2.21 -0.24,-0.85 -0.28,-1.78 -0.13,-2.78 V 17.4 c 0.15,-0.98 0.47,-1.89 0.96,-2.74 0.49,-0.85 1.09,-1.6 1.82,-2.23 0.72,-0.64 1.55,-1.13 2.47,-1.49 0.92,-0.36 1.89,-0.54 2.92,-0.54 0.69,0 1.31,0.07 1.86,0.2 0.54,0.13 1.03,0.33 1.46,0.58 0.43,0.25 0.81,0.55 1.14,0.9 0.33,0.35 0.61,0.73 0.84,1.14 l -3.14,2.18 c -0.31,-0.49 -0.68,-0.87 -1.1,-1.16 -0.42,-0.28 -0.96,-0.42 -1.61,-0.42 -0.47,0 -0.92,0.09 -1.34,0.28 -0.42,0.19 -0.8,0.44 -1.13,0.76 -0.33,0.32 -0.61,0.7 -0.84,1.14 -0.23,0.44 -0.38,0.9 -0.45,1.39 v 0.04 c -0.08,0.5 -0.07,0.97 0.02,1.42 0.09,0.44 0.26,0.83 0.49,1.15 0.23,0.32 0.53,0.58 0.9,0.76 0.36,0.19 0.78,0.28 1.26,0.28 0.35,0 0.67,-0.04 0.97,-0.12 0.3,-0.08 0.58,-0.19 0.84,-0.34 0.26,-0.15 0.51,-0.32 0.75,-0.52 0.24,-0.2 0.48,-0.42 0.73,-0.66 l 2.51,2 c -0.39,0.44 -0.8,0.84 -1.23,1.21 -0.43,0.37 -0.91,0.69 -1.44,0.96 -0.52,0.27 -1.09,0.48 -1.71,0.64 -0.62,0.15 -1.3,0.23 -2.05,0.23 z"
           id="path229"
           style="fill:#5277c3" />
        <path
           class="cls-2"
           d="m 90.15,10.55 h 3.6 l 3.69,13.58 h -4.01 l -0.62,-2.41 h -5.2 l -1.33,2.41 h -3.93 l 7.79,-13.58 z m 2.02,8.28 -0.92,-3.83 -2.1,3.83 z"
           id="path231"
           style="fill:#5277c3" />
        <path
           class="cls-2"
           d="m 101.22,10.64 h 5.2 c 1.21,0 2.26,0.16 3.15,0.49 0.89,0.33 1.62,0.79 2.18,1.38 0.56,0.59 0.95,1.29 1.16,2.11 0.22,0.82 0.25,1.71 0.1,2.69 v 0.04 c -0.15,0.98 -0.46,1.88 -0.93,2.71 -0.47,0.83 -1.08,1.54 -1.83,2.15 -0.75,0.6 -1.62,1.08 -2.63,1.42 -1.01,0.34 -2.12,0.51 -3.32,0.51 h -5.12 l 2.04,-13.48 z m 3.73,10.17 c 1.12,0 2.07,-0.3 2.84,-0.89 0.77,-0.59 1.24,-1.43 1.41,-2.52 v -0.04 c 0.17,-1.08 -0.05,-1.92 -0.64,-2.51 -0.59,-0.6 -1.45,-0.9 -2.57,-0.9 h -1.53 l -1.04,6.86 z"
           id="path233"
           style="fill:#5277c3" />
        <path
           class="cls-2"
           d="m 116.52,10.64 h 10.83 l -0.48,3.18 h -7.15 l -0.31,2.04 h 6.47 l -0.45,2.95 h -6.47 l -0.32,2.14 h 7.24 l -0.48,3.18 h -10.92 l 2.04,-13.48 z"
           id="path235"
           style="fill:#5277c3" />
        <path
           class="cls-2"
           d="m 130.21,10.64 h 3.95 l 2.43,5.22 4.01,-5.22 h 3.95 l -2.04,13.48 h -3.72 l 1.17,-7.74 -4.24,5.28 h -0.08 l -2.63,-5.24 -1.17,7.7 h -3.68 l 2.04,-13.48 z"
           id="path237"
           style="fill:#5277c3" />
        <path
           class="cls-2"
           d="m 150.05,19.08 -3.85,-8.44 h 4.26 l 2.03,4.91 3.54,-4.91 h 4.18 l -6.39,8.38 -0.77,5.1 h -3.76 l 0.76,-5.05 z"
           id="path239"
           style="fill:#5277c3" />
        <path
           id="path3336-6"
           class="cls-4"
           d="m 12.09,17.61 9.65,16.72 -4.44,0.04 -2.58,-4.49 -2.59,4.47 h -2.2 c 0,0 -1.13,-1.95 -1.13,-1.95 l 3.7,-6.36 -2.62,-4.57 2.22,-3.86 z"
           style="fill:url(#Unbenannter_Verlauf_5);fill-rule:evenodd" />
        <g
           id="use3439-6">
          <path
             id="path3336-6-2"
             class="cls-5"
             d="M 15.57,10.72 5.92,27.44 3.67,23.62 6.27,19.14 H 1.1 c 0,0 -1.1,-1.92 -1.1,-1.92 l 1.12,-1.95 7.35,0.02 2.64,-4.56 h 4.45 z"
             style="fill:#7ebae4;fill-rule:evenodd" />
        </g>
        <path
           id="path4260-0"
           class="cls-3"
           d="m 12.09,17.61 9.65,16.72 -4.44,0.04 -2.58,-4.49 -2.59,4.47 h -2.2 c 0,0 -1.13,-1.95 -1.13,-1.95 l 3.7,-6.36 -2.62,-4.57 2.22,-3.86 z"
           style="fill:#5277c3;fill-rule:evenodd" />
        <g
           id="use4354-5">
          <path
             id="path4260-0-2"
             class="cls-3"
             d="M 23.28,10.24 H 3.98 c 0,0 2.18,-3.86 2.18,-3.86 h 5.18 c 0,0 -2.57,-4.47 -2.57,-4.47 L 9.87,0 h 2.25 c 0,0 3.66,6.38 3.66,6.38 h 5.27 c 0,0 2.24,3.86 2.24,3.86 z"
             style="fill:#5277c3;fill-rule:evenodd" />
        </g>
        <polygon
           class="cls-5"
           points="18.55,27.93 23.82,27.94 26.65,32.89 27.98,24.09 16.31,24.08 "
           id="polygon247"
           style="fill:#7ebae4;fill-rule:evenodd" />
        <polygon
           class="cls-5"
           points="28.77,18.88 29.69,12.78 27.14,8.33 30.84,1.97 29.71,0.02 27.5,0.02 24.91,4.49 22.33,0 17.9,0.04 "
           id="polygon249"
           style="fill:#7ebae4;fill-rule:evenodd" />
      </g>
    </g>
  </g>
</svg>
