<?xml version="1.0" encoding="UTF-8" standalone="no"?>
<!-- Created with Inkscape (http://www.inkscape.org/) -->

<svg
   width="6000"
   height="4000"
   viewBox="0 0 1587.5 1058.3333"
   version="1.1"
   id="svg5"
   xml:space="preserve"
   sodipodi:docname="wallpaper-applicative-dark.svg"
   inkscape:version="1.4.3 (0d15f75042, 2025-12-25)"
   xmlns:inkscape="http://www.inkscape.org/namespaces/inkscape"
   xmlns:sodipodi="http://sodipodi.sourceforge.net/DTD/sodipodi-0.dtd"
   xmlns="http://www.w3.org/2000/svg"
   xmlns:svg="http://www.w3.org/2000/svg"><sodipodi:namedview
     id="namedview1"
     pagecolor="#1d1d1d"
     bordercolor="#000000"
     borderopacity="0.25"
     inkscape:showpageshadow="2"
     inkscape:pageopacity="0.0"
     inkscape:pagecheckerboard="0"
     inkscape:deskcolor="#d1d1d1"
     inkscape:zoom="0.1044292"
     inkscape:cx="2489.7252"
     inkscape:cy="1828.9904"
     inkscape:window-width="1440"
     inkscape:window-height="891"
     inkscape:window-x="0"
     inkscape:window-y="0"
     inkscape:window-maximized="1"
     inkscape:current-layer="svg5" /><defs
     id="defs2"><linearGradient
   id="Unbenannter_Verlauf_5"
   x1="332.82001"
   y1="-2257.6299"
   x2="341.66"
   y2="-2272.9099"
   gradientTransform="matrix(0.8,0,0,-0.8,-259.14,-1786.85)"
   gradientUnits="userSpaceOnUse"><stop
     offset="0"
     stop-color="#699ad7"
     id="stop184" /><stop
     offset=".24"
     stop-color="#7eb1dd"
     id="stop186" /><stop
     offset="1"
     stop-color="#7ebae4"
     id="stop188" /></linearGradient><filter
   style="color-interpolation-filters:sRGB"
   id="filter23"
   x="0"
   y="0"
   width="1"
   height="1"><feColorMatrix
     type="hueRotate"
     values="180"
     result="color1"
     id="feColorMatrix22" /><feColorMatrix
     values="-1 0 0 0 1 0 -1 0 0 1 0 0 -1 0 1 -0.21 -0.72 -0.07 2 0 "
     result="color2"
     id="feColorMatrix23" /></filter>
	
	
	
	
	
</defs><g
     id="layer1"
     transform="matrix(1.8858778,0,0,1.8858778,-228.14432,-9.7229226)"><g
       id="g1"
       transform="matrix(0.87043613,0,0,0.87043613,221.11095,63.701743)"><g
         id="g3"
         style="filter:url(#filter23)">
		<path
   d="m 441.6,37.8 h 23.8 l 32.9,99.9 h -26.5 l -5.7,-19.6 h -25.3 l -5.6,19.6 h -26.6 z m 20.3,62.1 -8.4,-31 -8.8,31 z"
   id="path1" />
		<path
   d="M 507.6,137.7 V 37.8 h 40.9 c 4.6,0 8.9,1 12.8,3 3.9,2 7.3,4.6 10.1,7.9 2.8,3.2 5,6.9 6.6,11.1 1.6,4.2 2.4,8.4 2.4,12.6 0,4.4 -0.8,8.7 -2.3,12.9 -1.5,4.2 -3.6,7.9 -6.3,11.1 -2.7,3.2 -6,5.8 -9.9,7.7 -3.9,1.9 -8.1,2.9 -12.8,2.9 h -15.5 v 30.7 z m 26,-54.6 h 13.8 c 1.6,0 3.1,-0.8 4.5,-2.3 1.4,-1.5 2.1,-4.3 2.1,-8.4 0,-4.1 -0.8,-6.9 -2.4,-8.4 -1.6,-1.5 -3.2,-2.3 -4.8,-2.3 h -13.1 v 21.4 z"
   id="path2" />
		<path
   d="M 589.7,137.7 V 37.8 h 40.9 c 4.6,0 8.9,1 12.8,3 3.9,2 7.3,4.6 10.1,7.9 2.8,3.2 5,6.9 6.6,11.1 1.6,4.2 2.4,8.4 2.4,12.6 0,4.4 -0.8,8.7 -2.3,12.9 -1.5,4.2 -3.6,7.9 -6.3,11.1 -2.7,3.2 -6,5.8 -9.9,7.7 -3.9,1.9 -8.1,2.9 -12.8,2.9 h -15.5 v 30.7 z m 26.1,-54.6 h 13.8 c 1.6,0 3.1,-0.8 4.5,-2.3 1.4,-1.5 2.1,-4.3 2.1,-8.4 0,-4.1 -0.8,-6.9 -2.4,-8.4 -1.6,-1.5 -3.2,-2.3 -4.8,-2.3 h -13.1 v 21.4 z"
   id="path3" />
	</g><g
         id="g7"
         style="filter:url(#filter23)">
		<path
   d="m 408.6,253.7 v -99.9 h 26.1 v 76 h 43 v 23.9 z"
   id="path4" />
		<path
   d="m 486.2,253.7 v -99.9 h 26.1 v 99.9 z"
   id="path5" />
		<path
   d="m 520.8,202.9 c 0,-6.1 1.1,-12.1 3.3,-18 2.2,-5.9 5.4,-11.2 9.6,-15.9 4.2,-4.7 9.3,-8.5 15.2,-11.4 6,-2.9 12.8,-4.4 20.4,-4.4 9.2,0 17.1,2 23.9,6 6.7,4 11.7,9.3 15,15.8 l -19.9,15 c -0.9,-2.4 -2.1,-4.5 -3.5,-6 -1.5,-1.6 -3.1,-2.9 -4.9,-3.8 -1.8,-0.9 -3.6,-1.6 -5.5,-2 -1.9,-0.4 -3.8,-0.6 -5.5,-0.6 -3.7,0 -7,0.8 -9.7,2.3 -2.7,1.5 -4.9,3.6 -6.7,6 -1.7,2.5 -3,5.3 -3.9,8.4 -0.8,3.1 -1.3,6.3 -1.3,9.4 0,3.5 0.5,6.8 1.5,10 1,3.2 2.4,6 4.3,8.4 1.9,2.4 4.2,4.4 6.9,5.8 2.7,1.5 5.8,2.2 9.2,2.2 1.8,0 3.6,-0.2 5.5,-0.6 1.9,-0.4 3.7,-1.1 5.4,-2.1 1.7,-1 3.3,-2.3 4.7,-3.8 1.4,-1.5 2.5,-3.4 3.3,-5.7 l 21.2,13.4 c -1.4,3.7 -3.6,6.9 -6.5,9.8 -2.9,2.9 -6.2,5.3 -9.9,7.3 -3.7,2 -7.7,3.5 -11.9,4.5 -4.2,1 -8.4,1.5 -12.4,1.5 -7,0 -13.5,-1.5 -19.3,-4.4 -5.8,-3 -10.9,-6.9 -15.1,-11.7 -4.2,-4.9 -7.5,-10.4 -9.8,-16.6 -2.5,-6.1 -3.6,-12.4 -3.6,-18.8 z"
   id="path6" />
		<path
   d="m 644.6,153.8 h 23.8 l 32.9,99.9 h -26.5 l -5.7,-19.6 h -25.3 l -5.6,19.6 h -26.6 z m 20.4,62.1 -8.4,-31 -8.8,31 z"
   id="path7" />
	</g><g
         id="g12"
         style="filter:url(#filter23)">
		<path
   d="M 489.3,294 H 462 v 76 h -26 v -76 h -27.4 v -23.9 h 80.7 z"
   id="path8" />
		<path
   d="m 498.4,370 v -99.9 h 26.1 V 370 Z"
   id="path9" />
		<path
   d="m 560.9,270.1 18.6,65.4 18.3,-65.4 h 27.4 L 590.3,370 h -21.7 l -35.3,-99.9 z"
   id="path10" />
		<g
   id="g11">
			<path
   d="M 702,346.1 V 370 H 634.1 V 270.1 H 702 V 294 h -41.8 v 14.1 h 34.5 v 22.2 h -34.5 v 15.8 z"
   id="path11" />
		</g>
	</g><g
         id="g13"
         style="filter:url(#filter23)">
		<polygon
   points="367.1,37.8 35,37.8 35,322.5 57,295.6 57,272.7 163.3,154.8 201.2,112.8 239.1,154.8 345.1,272.3 345.1,295.5 367.1,322.5 "
   id="polygon12" />
		<polygon
   points="342.9,351 216.6,212.5 233.4,193.5 232.2,192.3 201.6,192.4 133.7,269.1 59.2,351.6 59.2,370 342.9,370 "
   id="polygon13" />
	</g><g
         id="g19"
         style="filter:url(#filter23)">
		<path
   d="m 424.6,455.1 c -6.5,0 -11.9,-2.3 -16.1,-6.8 l 1.2,-1.1 c 2.2,2.1 4.4,3.7 6.8,4.7 2.4,1 5,1.5 8.1,1.5 4.2,0 7.5,-0.9 10.1,-2.7 2.6,-1.8 3.9,-4.3 3.9,-7.5 0,-1.5 -0.3,-2.8 -1,-3.8 -0.6,-1 -1.6,-1.9 -2.8,-2.6 -1.2,-0.7 -2.8,-1.4 -4.6,-1.9 -1.8,-0.5 -3.9,-1 -6.2,-1.6 -2.3,-0.5 -4.2,-1 -5.9,-1.5 -1.7,-0.5 -3.1,-1 -4.2,-1.7 -1.1,-0.7 -1.9,-1.6 -2.5,-2.6 -0.6,-1.1 -0.9,-2.4 -0.9,-4.1 0,-2.1 0.4,-3.9 1.2,-5.4 0.8,-1.5 1.9,-2.7 3.2,-3.7 1.4,-1 2.9,-1.7 4.7,-2.2 1.8,-0.5 3.7,-0.7 5.7,-0.7 3.4,0 6.3,0.6 8.7,1.7 2.4,1.2 4.1,2.6 5,4.3 l -1.5,0.6 c -1,-1.7 -2.7,-2.9 -5,-3.8 -2.3,-0.9 -4.8,-1.3 -7.5,-1.3 -1.7,0 -3.4,0.2 -5,0.6 -1.6,0.4 -3,1 -4.1,1.8 -1.2,0.8 -2.1,1.9 -2.8,3.1 -0.7,1.3 -1,2.8 -1,4.6 0,1.4 0.2,2.6 0.7,3.5 0.5,0.9 1.2,1.6 2.2,2.2 1,0.6 2.2,1.1 3.7,1.5 1.5,0.4 3.3,0.9 5.4,1.4 2.5,0.6 4.8,1.2 6.8,1.7 2,0.5 3.7,1.2 5.1,2 1.4,0.8 2.4,1.8 3.2,3 0.8,1.2 1.1,2.7 1.1,4.5 0,1.8 -0.4,3.5 -1.1,5 -0.8,1.5 -1.8,2.8 -3.2,3.8 -1.4,1.1 -3,1.9 -5,2.4 -1.9,0.8 -4.1,1.1 -6.4,1.1 z"
   id="path13" />
		<path
   d="m 453.3,470.8 c 0.9,0 1.7,0 2.4,-0.1 0.7,-0.1 1.1,-0.3 1.4,-0.7 0.2,-0.2 0.4,-0.5 0.6,-0.9 0.2,-0.5 0.6,-1.2 1.1,-2.4 0.5,-1.1 1.2,-2.7 2,-4.6 0.9,-2 2,-4.6 3.4,-7.8 l -19.6,-42.1 h 1.8 l 18.6,40.1 17.6,-40.1 h 1.8 l -25.1,57.2 c -0.6,1.4 -1.5,2.3 -2.7,2.6 -1.1,0.3 -2.2,0.4 -3.3,0.4 z"
   id="path14" />
		<path
   d="m 504.6,455.1 c -6.5,0 -11.9,-2.3 -16.1,-6.8 l 1.2,-1.1 c 2.2,2.1 4.4,3.7 6.8,4.7 2.4,1 5,1.5 8.1,1.5 4.2,0 7.5,-0.9 10.1,-2.7 2.6,-1.8 3.9,-4.3 3.9,-7.5 0,-1.5 -0.3,-2.8 -1,-3.8 -0.6,-1 -1.6,-1.9 -2.8,-2.6 -1.2,-0.7 -2.8,-1.4 -4.6,-1.9 -1.8,-0.5 -3.9,-1 -6.2,-1.6 -2.3,-0.5 -4.2,-1 -5.9,-1.5 -1.7,-0.5 -3.1,-1 -4.2,-1.7 -1.1,-0.7 -1.9,-1.6 -2.5,-2.6 -0.6,-1.1 -0.9,-2.4 -0.9,-4.1 0,-2.1 0.4,-3.9 1.2,-5.4 0.8,-1.5 1.9,-2.7 3.2,-3.7 1.4,-1 2.9,-1.7 4.7,-2.2 1.8,-0.5 3.7,-0.7 5.7,-0.7 3.4,0 6.3,0.6 8.7,1.7 2.4,1.2 4.1,2.6 5,4.3 l -1.5,0.6 c -1,-1.7 -2.7,-2.9 -5,-3.8 -2.3,-0.9 -4.8,-1.3 -7.5,-1.3 -1.7,0 -3.4,0.2 -5,0.6 -1.6,0.4 -3,1 -4.1,1.8 -1.2,0.8 -2.1,1.9 -2.8,3.1 -0.7,1.3 -1,2.8 -1,4.6 0,1.4 0.2,2.6 0.7,3.5 0.5,0.9 1.2,1.6 2.2,2.2 1,0.6 2.2,1.1 3.7,1.5 1.5,0.4 3.3,0.9 5.4,1.4 2.5,0.6 4.7,1.2 6.8,1.7 2,0.5 3.7,1.2 5.1,2 1.4,0.8 2.4,1.8 3.2,3 0.8,1.2 1.1,2.7 1.1,4.5 0,1.8 -0.4,3.5 -1.1,5 -0.8,1.5 -1.8,2.8 -3.2,3.8 -1.4,1.1 -3,1.9 -5,2.4 -2,0.8 -4.1,1.1 -6.4,1.1 z"
   id="path15" />
		<path
   d="m 546.9,452.4 c -0.8,0.5 -1.6,0.9 -2.2,1.2 -0.7,0.3 -1.5,0.5 -2.4,0.8 -0.9,0.2 -1.9,0.4 -3.1,0.4 -1.9,0 -3.7,-0.6 -5.1,-1.8 -1.5,-1.2 -2.2,-2.8 -2.2,-4.7 v -34.4 h -6.1 v -1.6 h 6.1 v -14.7 h 1.6 v 14.7 h 10.1 v 1.6 h -10.1 v 34.4 c 0.1,1.6 0.7,2.8 1.9,3.6 1.1,0.8 2.4,1.3 3.8,1.3 0.9,0 1.8,-0.1 2.6,-0.3 0.8,-0.2 1.5,-0.4 2.2,-0.6 0.6,-0.2 1.1,-0.5 1.5,-0.7 0.4,-0.2 0.6,-0.4 0.6,-0.4 z"
   id="path16" />
		<path
   d="m 570.6,455.1 c -2.8,0 -5.4,-0.6 -7.8,-1.7 -2.5,-1.2 -4.6,-2.8 -6.5,-4.8 -1.8,-2 -3.3,-4.4 -4.4,-7.1 -1.1,-2.7 -1.6,-5.5 -1.6,-8.6 0,-3 0.5,-5.8 1.5,-8.4 1,-2.6 2.4,-4.9 4.3,-6.8 1.8,-1.9 3.9,-3.5 6.3,-4.6 2.4,-1.1 5,-1.7 7.8,-1.7 2.8,0 5.5,0.6 7.9,1.7 2.5,1.1 4.6,2.7 6.4,4.6 1.8,1.9 3.3,4.2 4.3,6.9 1.1,2.7 1.6,5.5 1.6,8.5 V 434 H 552 c 0.2,2.7 0.9,5.2 1.9,7.6 1.1,2.4 2.4,4.4 4.1,6.1 1.7,1.7 3.6,3.1 5.8,4.1 2.2,1 4.5,1.5 6.9,1.5 1.6,0 3.2,-0.2 4.7,-0.6 1.5,-0.4 3,-1 4.3,-1.8 1.4,-0.8 2.5,-1.7 3.6,-2.8 1,-1.1 1.8,-2.3 2.4,-3.6 l 1.5,0.4 c -0.6,1.5 -1.4,2.8 -2.6,4 -1.1,1.2 -2.4,2.3 -3.9,3.2 -1.5,0.9 -3.1,1.6 -4.9,2.1 -1.5,0.7 -3.3,0.9 -5.2,0.9 z m 18.2,-22.5 c -0.2,-2.8 -0.8,-5.4 -1.8,-7.8 -1,-2.4 -2.4,-4.4 -4,-6.1 -1.7,-1.7 -3.6,-3 -5.7,-4 -2.2,-1 -4.5,-1.5 -7,-1.5 -2.5,0 -4.8,0.5 -7,1.5 -2.2,1 -4.1,2.3 -5.7,4.1 -1.7,1.7 -3,3.8 -3.9,6.2 -1,2.4 -1.5,5 -1.7,7.7 h 36.8 z"
   id="path17" />
		<path
   d="m 660.7,454.3 h -1.6 v -23.5 c 0,-6.1 -0.9,-10.5 -2.7,-13.4 -1.8,-2.9 -4.7,-4.3 -8.6,-4.3 -2,0 -3.9,0.4 -5.6,1.1 -1.8,0.7 -3.4,1.7 -4.8,3 -1.4,1.3 -2.7,2.8 -3.7,4.6 -1.1,1.8 -1.9,3.7 -2.4,5.8 v 26.5 h -1.6 v -23.5 c 0,-6.1 -0.9,-10.6 -2.7,-13.4 -1.8,-2.8 -4.6,-4.3 -8.5,-4.3 -1.9,0 -3.8,0.4 -5.6,1.1 -1.8,0.7 -3.4,1.7 -4.8,3 -1.4,1.3 -2.7,2.8 -3.8,4.6 -1.1,1.8 -1.9,3.8 -2.5,5.9 v 26.6 h -1.6 V 412 h 1.6 v 10.9 c 1.8,-3.7 4.2,-6.5 7,-8.5 2.8,-2 5.9,-3 9.3,-3 3.6,0 6.5,1.1 8.8,3.3 2.3,2.2 3.6,5.2 4.1,8.9 4.2,-8.2 9.8,-12.3 16.9,-12.3 4.4,0 7.6,1.6 9.7,4.7 2.1,3.1 3.2,8 3.2,14.6 v 23.7 z"
   id="path18" />
		<path
   d="m 686.1,455.1 c -6.5,0 -11.9,-2.3 -16.1,-6.8 l 1.2,-1.1 c 2.2,2.1 4.4,3.7 6.8,4.7 2.4,1 5,1.5 8.1,1.5 4.2,0 7.5,-0.9 10.1,-2.7 2.6,-1.8 3.9,-4.3 3.9,-7.5 0,-1.5 -0.3,-2.8 -1,-3.8 -0.6,-1 -1.6,-1.9 -2.8,-2.6 -1.2,-0.7 -2.8,-1.4 -4.6,-1.9 -1.8,-0.5 -3.9,-1 -6.2,-1.6 -2.3,-0.5 -4.2,-1 -5.9,-1.5 -1.7,-0.5 -3.1,-1 -4.2,-1.7 -1.1,-0.7 -1.9,-1.6 -2.5,-2.6 -0.6,-1.1 -0.9,-2.4 -0.9,-4.1 0,-2.1 0.4,-3.9 1.2,-5.4 0.8,-1.5 1.9,-2.7 3.2,-3.7 1.4,-1 2.9,-1.7 4.7,-2.2 1.8,-0.5 3.7,-0.7 5.7,-0.7 3.4,0 6.3,0.6 8.7,1.7 2.4,1.2 4.1,2.6 5,4.3 L 699,418 c -1,-1.7 -2.7,-2.9 -5,-3.8 -2.3,-0.9 -4.8,-1.3 -7.5,-1.3 -1.7,0 -3.4,0.2 -5,0.6 -1.6,0.4 -3,1 -4.1,1.8 -1.2,0.8 -2.1,1.9 -2.8,3.1 -0.7,1.3 -1,2.8 -1,4.6 0,1.4 0.2,2.6 0.7,3.5 0.5,0.9 1.2,1.6 2.2,2.2 1,0.6 2.2,1.1 3.7,1.5 1.5,0.4 3.3,0.9 5.4,1.4 2.5,0.6 4.7,1.2 6.8,1.7 2.1,0.5 3.7,1.2 5.1,2 1.4,0.8 2.4,1.8 3.2,3 0.8,1.2 1.1,2.7 1.1,4.5 0,1.8 -0.4,3.5 -1.1,5 -0.8,1.5 -1.8,2.8 -3.2,3.8 -1.4,1.1 -3,1.9 -5,2.4 -1.9,0.8 -4,1.1 -6.4,1.1 z"
   id="path19" />
	</g></g></g></svg>
