<?xml version="1.0" encoding="UTF-8" standalone="no"?>
<svg
   id="Ebene_2"
   viewBox="0 0 127.55 101.32424"
   version="1.1"
   width="127.55"
   height="101.32424"
   xmlns="http://www.w3.org/2000/svg"
   xmlns:svg="http://www.w3.org/2000/svg">
  <defs
     id="defs3">
    <style
       id="style1">.cls-1{fill:#304673;}.cls-2,.cls-3{fill:#5277c3;}.cls-4{fill:url(#Unbenannter_Verlauf_5);}.cls-4,.cls-3,.cls-5{fill-rule:evenodd;}.cls-5{fill:#7ebae4;}</style>
    <linearGradient
       id="Unbenannter_Verlauf_5"
       x1="453.73001"
       y1="-2211.55"
       x2="466.85001"
       y2="-2234.24"
       gradientTransform="matrix(1.2876843,0,0,-1.2876843,-548.47296,-2801.7596)"
       gradientUnits="userSpaceOnUse">
      <stop
         offset="0"
         stop-color="#699ad7"
         id="stop1" />
      <stop
         offset=".24"
         stop-color="#7eb1dd"
         id="stop2" />
      <stop
         offset="1"
         stop-color="#7ebae4"
         id="stop3" />
    </linearGradient>
  </defs>
  <g
     id="g30"
     transform="matrix(1.3417036,0,0,1.3417036,-24.770077,0)"
     style="fill:#000000;fill-opacity:1">
    <path
       id="path3336-6-2"
       style="stroke-width:1.60961;fill:#000000;fill-opacity:1"
       class="cls-5"
       d="m 55.966797,25.609375 -10.640625,0.03125 -6.308594,10.896484 -17.578125,-0.04687 -2.6875,4.667969 2.640625,4.554688 12.345703,0.03125 -6.214843,10.705078 0.18164,0.308593 H 38.007812 L 55.982422,25.625 Z" />
    <path
       id="path4260-0"
       style="stroke-width:1.60961;fill:#000000;fill-opacity:1"
       class="cls-3"
       d="m 47.628906,42.074219 -5.296875,9.224609 3.140625,5.458984 h 10.640625 l -8.46875,-14.666015 z" />
    <path
       id="path3336-6-4"
       class="cls-5"
       d="M 84.60094,40.063078 61.535294,0.09657632 72.142594,0 78.307382,10.736068 84.488267,0.06438422 h 5.26341 c 0,0 2.704137,4.66785568 2.704137,4.66785568 L 83.61908,19.926915 89.896541,30.840039 Z"
       style="stroke-width:1.60961;fill:#000000;fill-opacity:1" />
    <path
       id="path4260-0-2"
       class="cls-3"
       d="m 74.412137,24.482098 h -46.13129 c 0,0 5.215121,-9.239135 5.215121,-9.239135 L 45.873834,15.275155 39.725141,4.5712793 42.348798,0 h 5.392178 c 0,0 8.740157,15.242963 8.740157,15.242963 l 12.587114,0.03219 z"
       style="stroke-width:1.60961;fill:#000000;fill-opacity:1" />
    <path
       id="path4260-0-3"
       class="cls-3"
       d="m 76.230991,56.513246 23.065646,-39.950406 5.392173,9.126462 -6.213072,10.703876 12.345672,0.03219 2.63975,4.555183 -2.68804,4.667856 -17.576888,-0.04829 -6.309653,10.897029 -10.639491,0.03219 z"
       style="stroke-width:1.60961;fill:#000000;fill-opacity:1" />
  </g>
  <g
     id="g31"
     transform="translate(0,19.394344)"
     style="fill:#000000;fill-opacity:1">
    <path
       class="cls-1"
       d="m 2.04,58.559895 h 3.49 l 4.48,7.13 1.08,-7.13 h 3.68 l -2.04,13.48 H 9.45 l -4.65,-7.4 -1.12,7.4 H 0 Z"
       id="path3"
       style="fill:#000000;fill-opacity:1" />
    <path
       class="cls-1"
       d="m 17.95,58.559895 h 3.76 l -2.04,13.48 h -3.76 z"
       id="path4"
       style="fill:#000000;fill-opacity:1" />
    <path
       class="cls-1"
       d="m 27.14,65.179895 -3.43,-6.63 h 4.3 l 1.81,3.79 2.98,-3.79 H 37 l -5.43,6.59 3.58,6.89 h -4.3 l -1.97,-4.06 -3.21,4.06 h -4.2 l 5.66,-6.86 z"
       id="path5"
       style="fill:#000000;fill-opacity:1" />
    <path
       class="cls-2"
       d="m 42.86,72.309895 c -0.96,0 -1.84,-0.17 -2.64,-0.52 -0.8,-0.35 -1.46,-0.83 -1.99,-1.46 -0.53,-0.62 -0.91,-1.36 -1.15,-2.21 -0.24,-0.85 -0.28,-1.78 -0.13,-2.78 v -0.04 c 0.15,-0.97 0.47,-1.89 0.96,-2.74 0.49,-0.85 1.09,-1.6 1.82,-2.23 0.72,-0.64 1.55,-1.13 2.47,-1.49 0.92,-0.36 1.9,-0.54 2.92,-0.54 0.69,0 1.31,0.07 1.86,0.2 0.54,0.13 1.03,0.33 1.46,0.58 0.43,0.25 0.81,0.55 1.14,0.9 0.33,0.35 0.61,0.72 0.84,1.13 l -3.14,2.18 c -0.31,-0.49 -0.68,-0.87 -1.1,-1.16 -0.42,-0.29 -0.96,-0.42 -1.61,-0.42 -0.47,0 -0.92,0.09 -1.34,0.28 -0.42,0.19 -0.8,0.44 -1.13,0.76 -0.33,0.32 -0.61,0.7 -0.84,1.14 -0.23,0.44 -0.38,0.9 -0.45,1.38 v 0.04 c -0.08,0.5 -0.07,0.97 0.02,1.42 0.09,0.44 0.26,0.83 0.49,1.15 0.23,0.32 0.53,0.57 0.9,0.76 0.36,0.19 0.78,0.28 1.26,0.28 0.35,0 0.67,-0.04 0.97,-0.12 0.3,-0.08 0.58,-0.19 0.84,-0.34 0.26,-0.15 0.51,-0.32 0.75,-0.52 0.24,-0.2 0.48,-0.42 0.73,-0.66 l 2.51,2 c -0.39,0.44 -0.8,0.84 -1.23,1.21 -0.43,0.37 -0.91,0.69 -1.44,0.96 -0.52,0.27 -1.09,0.48 -1.71,0.64 -0.62,0.15 -1.3,0.23 -2.05,0.23 z"
       id="path6"
       style="fill:#000000;fill-opacity:1" />
    <path
       class="cls-2"
       d="m 57.49,58.459895 h 3.6 l 3.69,13.58 h -4.01 l -0.62,-2.41 h -5.2 l -1.33,2.41 h -3.93 l 7.79,-13.58 z m 2.02,8.28 -0.92,-3.83 -2.1,3.83 z"
       id="path7"
       style="fill:#000000;fill-opacity:1" />
    <path
       class="cls-2"
       d="m 68.56,58.559895 h 5.2 c 1.21,0 2.26,0.17 3.15,0.49 0.89,0.33 1.62,0.79 2.18,1.38 0.56,0.59 0.95,1.29 1.16,2.11 0.22,0.82 0.25,1.71 0.1,2.69 v 0.04 c -0.15,0.98 -0.46,1.88 -0.93,2.71 -0.47,0.83 -1.08,1.54 -1.83,2.15 -0.75,0.6 -1.62,1.07 -2.63,1.41 -1.01,0.34 -2.12,0.51 -3.32,0.51 h -5.12 l 2.04,-13.48 z m 3.73,10.17 c 1.12,0 2.07,-0.3 2.84,-0.89 0.77,-0.59 1.24,-1.43 1.41,-2.52 v -0.04 c 0.17,-1.08 -0.05,-1.92 -0.64,-2.51 -0.59,-0.6 -1.45,-0.89 -2.57,-0.89 H 71.8 l -1.04,6.86 h 1.53 z"
       id="path8"
       style="fill:#000000;fill-opacity:1" />
    <path
       class="cls-2"
       d="m 83.86,58.559895 h 10.83 l -0.48,3.18 h -7.15 l -0.31,2.04 h 6.47 l -0.45,2.95 H 86.3 l -0.32,2.14 h 7.24 l -0.48,3.18 H 81.82 l 2.04,-13.48 z"
       id="path9"
       style="fill:#000000;fill-opacity:1" />
    <path
       class="cls-2"
       d="m 97.55,58.559895 h 3.95 l 2.43,5.22 4.01,-5.22 h 3.95 l -2.04,13.48 h -3.72 l 1.17,-7.74 -4.24,5.28 h -0.08 l -2.63,-5.24 -1.17,7.71 H 95.5 l 2.04,-13.48 z"
       id="path10"
       style="fill:#000000;fill-opacity:1" />
    <path
       class="cls-2"
       d="m 117.39,66.999895 -3.85,-8.44 h 4.26 l 2.03,4.91 3.54,-4.91 h 4.18 l -6.39,8.38 -0.77,5.1 h -3.76 l 0.76,-5.05 z"
       id="path11"
       style="fill:#000000;fill-opacity:1" />
    <path
       class="cls-2"
       d="m 26.98,76.679895 h 3.72 v 0.52 h -3.14 v 1.77 h 2.81 v 0.52 h -2.81 v 1.81 h 3.18 v 0.52 h -3.76 v -5.15 z"
       id="path12"
       style="fill:#000000;fill-opacity:1" />
    <path
       class="cls-2"
       d="m 33.93,79.199895 -1.91,-2.52 h 0.68 l 1.58,2.11 1.57,-2.11 h 0.68 l -1.91,2.52 1.98,2.63 h -0.69 l -1.65,-2.21 -1.65,2.21 h -0.67 l 1.98,-2.63 z"
       id="path13"
       style="fill:#000000;fill-opacity:1" />
    <path
       class="cls-2"
       d="m 37.96,76.679895 h 1.93 c 0.29,0 0.55,0.04 0.79,0.12 0.24,0.08 0.44,0.18 0.61,0.32 0.17,0.14 0.3,0.31 0.39,0.51 0.09,0.2 0.14,0.43 0.14,0.69 v 0 c 0,0.29 -0.05,0.54 -0.16,0.75 -0.11,0.21 -0.25,0.38 -0.44,0.53 -0.18,0.14 -0.4,0.25 -0.64,0.32 -0.25,0.07 -0.5,0.11 -0.78,0.11 h -1.25 v 1.82 h -0.58 v -5.15 z m 1.86,2.81 c 0.21,0 0.4,-0.03 0.58,-0.08 0.18,-0.05 0.32,-0.13 0.45,-0.23 0.12,-0.1 0.22,-0.22 0.29,-0.36 0.07,-0.14 0.1,-0.29 0.1,-0.46 v 0 c 0,-0.38 -0.13,-0.66 -0.38,-0.85 -0.25,-0.19 -0.59,-0.29 -1.01,-0.29 h -1.31 v 2.27 z"
       id="path14"
       style="fill:#000000;fill-opacity:1" />
    <path
       class="cls-2"
       d="m 43.21,76.679895 h 3.72 v 0.52 h -3.14 v 1.77 h 2.81 v 0.52 h -2.81 v 1.81 h 3.18 v 0.52 h -3.76 v -5.15 z"
       id="path15"
       style="fill:#000000;fill-opacity:1" />
    <path
       class="cls-2"
       d="m 48.42,76.679895 h 2.21 c 0.32,0 0.6,0.05 0.85,0.14 0.25,0.09 0.45,0.22 0.61,0.38 0.13,0.13 0.23,0.28 0.29,0.45 0.06,0.17 0.1,0.36 0.1,0.57 v 0 c 0,0.23 -0.04,0.42 -0.1,0.59 -0.07,0.17 -0.17,0.32 -0.29,0.44 -0.12,0.12 -0.27,0.23 -0.44,0.31 -0.17,0.08 -0.36,0.14 -0.56,0.17 l 1.58,2.1 h -0.71 l -1.49,-2 H 49 v 2 h -0.58 z m 2.17,2.63 c 0.19,0 0.37,-0.02 0.53,-0.07 0.16,-0.05 0.3,-0.12 0.42,-0.21 0.12,-0.09 0.21,-0.2 0.28,-0.33 0.07,-0.13 0.1,-0.28 0.1,-0.45 v -0.02 c 0,-0.32 -0.12,-0.57 -0.35,-0.75 -0.23,-0.18 -0.56,-0.27 -0.97,-0.27 h -1.59 v 2.09 h 1.59 z"
       id="path16"
       style="fill:#000000;fill-opacity:1" />
    <path
       class="cls-2"
       d="m 55.36,77.219895 h -1.73 v -0.54 h 4.04 v 0.54 h -1.73 v 4.61 h -0.58 z"
       id="path17"
       style="fill:#000000;fill-opacity:1" />
    <path
       class="cls-2"
       d="m 61.08,76.679895 h 3.72 v 0.52 h -3.14 v 1.77 h 2.81 v 0.52 h -2.81 v 1.81 h 3.18 v 0.52 h -3.76 v -5.15 z"
       id="path18"
       style="fill:#000000;fill-opacity:1" />
    <path
       class="cls-2"
       d="m 66.29,76.679895 h 1.79 c 0.4,0 0.77,0.07 1.11,0.2 0.34,0.13 0.63,0.31 0.87,0.54 0.24,0.23 0.43,0.5 0.56,0.81 0.13,0.31 0.2,0.65 0.2,1.01 v 0.02 c 0,0.36 -0.07,0.7 -0.2,1.02 -0.13,0.31 -0.32,0.59 -0.56,0.82 -0.24,0.23 -0.53,0.41 -0.87,0.54 -0.34,0.13 -0.71,0.2 -1.11,0.2 h -1.79 v -5.15 z m 1.79,4.61 c 0.32,0 0.62,-0.05 0.88,-0.15 0.26,-0.1 0.49,-0.24 0.67,-0.43 0.18,-0.19 0.33,-0.4 0.43,-0.64 0.1,-0.24 0.15,-0.51 0.15,-0.8 v 0 c 0,-0.3 -0.05,-0.56 -0.15,-0.81 -0.1,-0.25 -0.24,-0.46 -0.43,-0.65 -0.18,-0.19 -0.41,-0.33 -0.67,-0.44 -0.27,-0.11 -0.56,-0.16 -0.88,-0.16 h -1.21 v 4.08 z"
       id="path19"
       style="fill:#000000;fill-opacity:1" />
    <path
       class="cls-2"
       d="m 74.45,81.909895 c -0.32,0 -0.61,-0.05 -0.87,-0.14 -0.26,-0.1 -0.49,-0.24 -0.68,-0.43 -0.19,-0.19 -0.33,-0.42 -0.44,-0.7 -0.1,-0.28 -0.15,-0.6 -0.15,-0.96 v -3 h 0.58 v 2.96 c 0,0.56 0.14,0.99 0.42,1.29 0.28,0.3 0.66,0.45 1.16,0.45 0.5,0 0.85,-0.14 1.13,-0.43 0.28,-0.28 0.42,-0.71 0.42,-1.27 v -3 h 0.58 v 2.95 c 0,0.38 -0.05,0.71 -0.15,0.99 -0.1,0.29 -0.25,0.52 -0.44,0.71 -0.19,0.19 -0.42,0.33 -0.68,0.43 -0.26,0.1 -0.56,0.14 -0.88,0.14 z"
       id="path20"
       style="fill:#000000;fill-opacity:1" />
    <path
       class="cls-2"
       d="m 80.7,81.919895 c -0.37,0 -0.72,-0.07 -1.03,-0.21 -0.31,-0.14 -0.59,-0.32 -0.82,-0.56 -0.23,-0.24 -0.41,-0.52 -0.54,-0.84 -0.13,-0.32 -0.2,-0.67 -0.2,-1.04 v 0 c 0,-0.38 0.07,-0.72 0.2,-1.04 0.13,-0.32 0.31,-0.61 0.54,-0.85 0.23,-0.24 0.5,-0.43 0.82,-0.57 0.32,-0.14 0.67,-0.21 1.04,-0.21 0.24,0 0.45,0.02 0.64,0.06 0.19,0.04 0.36,0.1 0.53,0.17 0.16,0.07 0.31,0.16 0.45,0.26 0.14,0.1 0.27,0.21 0.4,0.33 l -0.4,0.43 c -0.22,-0.21 -0.46,-0.38 -0.71,-0.51 -0.25,-0.13 -0.56,-0.2 -0.91,-0.2 -0.29,0 -0.55,0.05 -0.79,0.16 -0.24,0.11 -0.45,0.26 -0.63,0.45 -0.18,0.19 -0.32,0.42 -0.42,0.67 -0.1,0.26 -0.15,0.53 -0.15,0.83 v 0.02 c 0,0.3 0.05,0.58 0.15,0.83 0.1,0.26 0.24,0.48 0.42,0.67 0.18,0.19 0.39,0.34 0.63,0.45 0.24,0.11 0.51,0.16 0.79,0.16 0.35,0 0.66,-0.06 0.91,-0.19 0.25,-0.13 0.5,-0.31 0.75,-0.55 l 0.38,0.38 c -0.13,0.14 -0.27,0.26 -0.42,0.37 -0.14,0.11 -0.3,0.21 -0.47,0.28 -0.17,0.08 -0.35,0.14 -0.54,0.19 -0.19,0.04 -0.4,0.06 -0.64,0.06 z"
       id="path21"
       style="fill:#000000;fill-opacity:1" />
    <path
       class="cls-2"
       d="m 86.06,76.649895 h 0.54 l 2.35,5.19 h -0.63 l -0.6,-1.36 h -2.8 l -0.61,1.36 h -0.6 z m 1.43,3.3 -1.17,-2.63 -1.18,2.63 z"
       id="path22"
       style="fill:#000000;fill-opacity:1" />
    <path
       class="cls-2"
       d="m 91.02,77.219895 h -1.73 v -0.54 h 4.04 v 0.54 H 91.6 v 4.61 h -0.58 z"
       id="path23"
       style="fill:#000000;fill-opacity:1" />
    <path
       class="cls-2"
       d="m 94.73,76.679895 h 0.58 v 5.15 h -0.58 z"
       id="path24"
       style="fill:#000000;fill-opacity:1" />
    <path
       class="cls-2"
       d="m 99.56,81.919895 c -0.39,0 -0.75,-0.07 -1.07,-0.21 -0.32,-0.14 -0.6,-0.33 -0.83,-0.58 -0.23,-0.24 -0.41,-0.53 -0.53,-0.85 -0.12,-0.32 -0.19,-0.66 -0.19,-1.01 v 0 c 0,-0.37 0.06,-0.71 0.19,-1.03 0.13,-0.32 0.31,-0.61 0.54,-0.85 0.23,-0.24 0.51,-0.44 0.83,-0.58 0.32,-0.14 0.68,-0.22 1.07,-0.22 0.39,0 0.75,0.07 1.07,0.21 0.32,0.14 0.6,0.34 0.83,0.58 0.23,0.24 0.41,0.53 0.53,0.85 0.12,0.32 0.19,0.66 0.19,1.01 0,0 0,0 0,0.02 0,0.35 -0.06,0.69 -0.19,1.02 -0.13,0.32 -0.31,0.61 -0.54,0.85 -0.23,0.24 -0.51,0.44 -0.83,0.58 -0.32,0.14 -0.68,0.22 -1.07,0.22 z m 0.01,-0.54 c 0.29,0 0.57,-0.05 0.81,-0.16 0.25,-0.11 0.46,-0.26 0.64,-0.45 0.18,-0.19 0.31,-0.41 0.42,-0.67 0.1,-0.25 0.15,-0.53 0.15,-0.82 v 0 c 0,-0.31 -0.05,-0.58 -0.15,-0.84 -0.1,-0.26 -0.24,-0.48 -0.42,-0.67 -0.18,-0.19 -0.4,-0.34 -0.64,-0.46 -0.25,-0.11 -0.52,-0.17 -0.81,-0.17 -0.29,0 -0.57,0.05 -0.81,0.17 -0.25,0.11 -0.46,0.26 -0.64,0.45 -0.18,0.19 -0.32,0.41 -0.42,0.67 -0.1,0.26 -0.15,0.53 -0.15,0.82 v 0.02 c 0,0.29 0.05,0.57 0.15,0.83 0.1,0.26 0.24,0.48 0.42,0.67 0.18,0.19 0.4,0.34 0.64,0.46 0.25,0.11 0.52,0.17 0.81,0.17 z"
       id="path25"
       style="fill:#000000;fill-opacity:1" />
    <path
       class="cls-2"
       d="m 103.78,76.679895 h 0.54 l 3.25,4.13 v -4.13 h 0.57 v 5.15 h -0.46 l -3.33,-4.22 v 4.22 h -0.57 z"
       id="path26"
       style="fill:#000000;fill-opacity:1" />
  </g>
</svg>
