<svg xmlns="http://www.w3.org/2000/svg" width="3840" height="2160" viewBox="0 0 3840 2160">
  <style>
    .bg   { fill:#ffffff }
    .logo { fill:#000000 }
  </style>
  <defs>
  <symbol id="markA" viewBox="35 37.8 667 434.6">
    <path d="M441.6,37.8h23.8l32.9,99.9h-26.5l-5.7-19.6h-25.3l-5.6,19.6h-26.6L441.6,37.8z M461.9,99.9l-8.4-31l-8.8,31H461.9z"/>
    <path d="M507.6,137.7V37.8h40.9c4.6,0,8.9,1,12.8,3c3.9,2,7.3,4.6,10.1,7.9c2.8,3.2,5,6.9,6.6,11.1c1.6,4.2,2.4,8.4,2.4,12.6    c0,4.4-0.8,8.7-2.3,12.9c-1.5,4.2-3.6,7.9-6.3,11.1c-2.7,3.2-6,5.8-9.9,7.7c-3.9,1.9-8.1,2.9-12.8,2.9h-15.5v30.7H507.6z     M533.6,83.1h13.8c1.6,0,3.1-0.8,4.5-2.3c1.4-1.5,2.1-4.3,2.1-8.4c0-4.1-0.8-6.9-2.4-8.4c-1.6-1.5-3.2-2.3-4.8-2.3h-13.1V83.1z"/>
    <path d="M589.7,137.7V37.8h40.9c4.6,0,8.9,1,12.8,3c3.9,2,7.3,4.6,10.1,7.9c2.8,3.2,5,6.9,6.6,11.1c1.6,4.2,2.4,8.4,2.4,12.6    c0,4.4-0.8,8.7-2.3,12.9c-1.5,4.2-3.6,7.9-6.3,11.1c-2.7,3.2-6,5.8-9.9,7.7c-3.9,1.9-8.1,2.9-12.8,2.9h-15.5v30.7H589.7z     M615.8,83.1h13.8c1.6,0,3.1-0.8,4.5-2.3c1.4-1.5,2.1-4.3,2.1-8.4c0-4.1-0.8-6.9-2.4-8.4c-1.6-1.5-3.2-2.3-4.8-2.3h-13.1V83.1z"/>
    <path d="M408.6,253.7v-99.9h26.1v76h43v23.9H408.6z"/>
    <path d="M486.2,253.7v-99.9h26.1v99.9H486.2z"/>
    <path d="M520.8,202.9c0-6.1,1.1-12.1,3.3-18c2.2-5.9,5.4-11.2,9.6-15.9c4.2-4.7,9.3-8.5,15.2-11.4c6-2.9,12.8-4.4,20.4-4.4    c9.2,0,17.1,2,23.9,6c6.7,4,11.7,9.3,15,15.8L588.3,190c-0.9-2.4-2.1-4.5-3.5-6c-1.5-1.6-3.1-2.9-4.9-3.8c-1.8-0.9-3.6-1.6-5.5-2    c-1.9-0.4-3.8-0.6-5.5-0.6c-3.7,0-7,0.8-9.7,2.3c-2.7,1.5-4.9,3.6-6.7,6c-1.7,2.5-3,5.3-3.9,8.4c-0.8,3.1-1.3,6.3-1.3,9.4    c0,3.5,0.5,6.8,1.5,10c1,3.2,2.4,6,4.3,8.4c1.9,2.4,4.2,4.4,6.9,5.8c2.7,1.5,5.8,2.2,9.2,2.2c1.8,0,3.6-0.2,5.5-0.6    c1.9-0.4,3.7-1.1,5.4-2.1c1.7-1,3.3-2.3,4.7-3.8c1.4-1.5,2.5-3.4,3.3-5.7l21.2,13.4c-1.4,3.7-3.6,6.9-6.5,9.8    c-2.9,2.9-6.2,5.3-9.9,7.3c-3.7,2-7.7,3.5-11.9,4.5c-4.2,1-8.4,1.5-12.4,1.5c-7,0-13.5-1.5-19.3-4.4c-5.8-3-10.9-6.9-15.1-11.7    c-4.2-4.9-7.5-10.4-9.8-16.6C521.9,215.6,520.8,209.3,520.8,202.9z"/>
    <path d="M644.6,153.8h23.8l32.9,99.9h-26.5l-5.7-19.6h-25.3l-5.6,19.6h-26.6L644.6,153.8z M665,215.9l-8.4-31l-8.8,31H665z"/>
    <path d="M489.3,294h-27.3v76H436v-76h-27.4v-23.9h80.7V294z"/>
    <path d="M498.4,370v-99.9h26.1V370H498.4z"/>
    <path d="M560.9,270.1l18.6,65.4l18.3-65.4h27.4L590.3,370h-21.7l-35.3-99.9H560.9z"/>
    <path d="M702,346.1V370l-67.9,0v-99.9l67.9,0V294l-41.8,0v14.1h34.5v22.2h-34.5v15.8L702,346.1z"/>
    <path fill-rule="evenodd" d="M35,37.8 367.1,37.8 367.1,370.2 35,370.2Z M201.2,112.8 163.3,154.8 57,272.7 57,295.6 35,322.5 35,370.2 367.1,370.2 367.1,322.5 345.1,295.5 345.1,272.3 239.1,154.8Z M232.2,192.3 233.4,193.5 216.6,212.5 342.9,351 342.9,370 59.2,370 59.2,351.6 133.7,269.1 201.6,192.4Z"/>
    <path d="M424.6,455.1c-6.5,0-11.9-2.3-16.1-6.8l1.2-1.1c2.2,2.1,4.4,3.7,6.8,4.7c2.4,1,5,1.5,8.1,1.5c4.2,0,7.5-0.9,10.1-2.7    c2.6-1.8,3.9-4.3,3.9-7.5c0-1.5-0.3-2.8-1-3.8c-0.6-1-1.6-1.9-2.8-2.6c-1.2-0.7-2.8-1.4-4.6-1.9c-1.8-0.5-3.9-1-6.2-1.6    c-2.3-0.5-4.2-1-5.9-1.5c-1.7-0.5-3.1-1-4.2-1.7c-1.1-0.7-1.9-1.6-2.5-2.6c-0.6-1.1-0.9-2.4-0.9-4.1c0-2.1,0.4-3.9,1.2-5.4    c0.8-1.5,1.9-2.7,3.2-3.7c1.4-1,2.9-1.7,4.7-2.2c1.8-0.5,3.7-0.7,5.7-0.7c3.4,0,6.3,0.6,8.7,1.7c2.4,1.2,4.1,2.6,5,4.3l-1.5,0.6    c-1-1.7-2.7-2.9-5-3.8c-2.3-0.9-4.8-1.3-7.5-1.3c-1.7,0-3.4,0.2-5,0.6c-1.6,0.4-3,1-4.1,1.8c-1.2,0.8-2.1,1.9-2.8,3.1    c-0.7,1.3-1,2.8-1,4.6c0,1.4,0.2,2.6,0.7,3.5c0.5,0.9,1.2,1.6,2.2,2.2c1,0.6,2.2,1.1,3.7,1.5c1.5,0.4,3.3,0.9,5.4,1.4    c2.5,0.6,4.8,1.2,6.8,1.7s3.7,1.2,5.1,2c1.4,0.8,2.4,1.8,3.2,3c0.8,1.2,1.1,2.7,1.1,4.5c0,1.8-0.4,3.5-1.1,5    c-0.8,1.5-1.8,2.8-3.2,3.8c-1.4,1.1-3,1.9-5,2.4C429.1,454.8,426.9,455.1,424.6,455.1z"/>
    <path d="M453.3,470.8c0.9,0,1.7,0,2.4-0.1c0.7-0.1,1.1-0.3,1.4-0.7c0.2-0.2,0.4-0.5,0.6-0.9c0.2-0.5,0.6-1.2,1.1-2.4    c0.5-1.1,1.2-2.7,2-4.6c0.9-2,2-4.6,3.4-7.8l-19.6-42.1h1.8l18.6,40.1l17.6-40.1h1.8l-25.1,57.2c-0.6,1.4-1.5,2.3-2.7,2.6    c-1.1,0.3-2.2,0.4-3.3,0.4V470.8z"/>
    <path d="M504.6,455.1c-6.5,0-11.9-2.3-16.1-6.8l1.2-1.1c2.2,2.1,4.4,3.7,6.8,4.7c2.4,1,5,1.5,8.1,1.5c4.2,0,7.5-0.9,10.1-2.7    c2.6-1.8,3.9-4.3,3.9-7.5c0-1.5-0.3-2.8-1-3.8c-0.6-1-1.6-1.9-2.8-2.6c-1.2-0.7-2.8-1.4-4.6-1.9c-1.8-0.5-3.9-1-6.2-1.6    c-2.3-0.5-4.2-1-5.9-1.5c-1.7-0.5-3.1-1-4.2-1.7c-1.1-0.7-1.9-1.6-2.5-2.6c-0.6-1.1-0.9-2.4-0.9-4.1c0-2.1,0.4-3.9,1.2-5.4    c0.8-1.5,1.9-2.7,3.2-3.7c1.4-1,2.9-1.7,4.7-2.2c1.8-0.5,3.7-0.7,5.7-0.7c3.4,0,6.3,0.6,8.7,1.7c2.4,1.2,4.1,2.6,5,4.3l-1.5,0.6    c-1-1.7-2.7-2.9-5-3.8c-2.3-0.9-4.8-1.3-7.5-1.3c-1.7,0-3.4,0.2-5,0.6c-1.6,0.4-3,1-4.1,1.8c-1.2,0.8-2.1,1.9-2.8,3.1    c-0.7,1.3-1,2.8-1,4.6c0,1.4,0.2,2.6,0.7,3.5c0.5,0.9,1.2,1.6,2.2,2.2c1,0.6,2.2,1.1,3.7,1.5c1.5,0.4,3.3,0.9,5.4,1.4    c2.5,0.6,4.7,1.2,6.8,1.7c2,0.5,3.7,1.2,5.1,2c1.4,0.8,2.4,1.8,3.2,3c0.8,1.2,1.1,2.7,1.1,4.5c0,1.8-0.4,3.5-1.1,5    c-0.8,1.5-1.8,2.8-3.2,3.8c-1.4,1.1-3,1.9-5,2.4C509,454.8,506.9,455.1,504.6,455.1z"/>
    <path d="M546.9,452.4c-0.8,0.5-1.6,0.9-2.2,1.2c-0.7,0.3-1.5,0.5-2.4,0.8c-0.9,0.2-1.9,0.4-3.1,0.4c-1.9,0-3.7-0.6-5.1-1.8    c-1.5-1.2-2.2-2.8-2.2-4.7v-34.4h-6.1v-1.6h6.1v-14.7h1.6v14.7h10.1v1.6h-10.1v34.4c0.1,1.6,0.7,2.8,1.9,3.6    c1.1,0.8,2.4,1.3,3.8,1.3c0.9,0,1.8-0.1,2.6-0.3c0.8-0.2,1.5-0.4,2.2-0.6c0.6-0.2,1.1-0.5,1.5-0.7c0.4-0.2,0.6-0.4,0.6-0.4    L546.9,452.4z"/>
    <path d="M570.6,455.1c-2.8,0-5.4-0.6-7.8-1.7c-2.5-1.2-4.6-2.8-6.5-4.8c-1.8-2-3.3-4.4-4.4-7.1c-1.1-2.7-1.6-5.5-1.6-8.6    c0-3,0.5-5.8,1.5-8.4c1-2.6,2.4-4.9,4.3-6.8c1.8-1.9,3.9-3.5,6.3-4.6c2.4-1.1,5-1.7,7.8-1.7c2.8,0,5.5,0.6,7.9,1.7    c2.5,1.1,4.6,2.7,6.4,4.6c1.8,1.9,3.3,4.2,4.3,6.9c1.1,2.7,1.6,5.5,1.6,8.5v0.9H552c0.2,2.7,0.9,5.2,1.9,7.6    c1.1,2.4,2.4,4.4,4.1,6.1c1.7,1.7,3.6,3.1,5.8,4.1c2.2,1,4.5,1.5,6.9,1.5c1.6,0,3.2-0.2,4.7-0.6c1.5-0.4,3-1,4.3-1.8    c1.4-0.8,2.5-1.7,3.6-2.8c1-1.1,1.8-2.3,2.4-3.6l1.5,0.4c-0.6,1.5-1.4,2.8-2.6,4c-1.1,1.2-2.4,2.3-3.9,3.2    c-1.5,0.9-3.1,1.6-4.9,2.1C574.3,454.9,572.5,455.1,570.6,455.1z M588.8,432.6c-0.2-2.8-0.8-5.4-1.8-7.8c-1-2.4-2.4-4.4-4-6.1    c-1.7-1.7-3.6-3-5.7-4c-2.2-1-4.5-1.5-7-1.5c-2.5,0-4.8,0.5-7,1.5c-2.2,1-4.1,2.3-5.7,4.1c-1.7,1.7-3,3.8-3.9,6.2    c-1,2.4-1.5,5-1.7,7.7H588.8z"/>
    <path d="M660.7,454.3h-1.6v-23.5c0-6.1-0.9-10.5-2.7-13.4c-1.8-2.9-4.7-4.3-8.6-4.3c-2,0-3.9,0.4-5.6,1.1c-1.8,0.7-3.4,1.7-4.8,3    c-1.4,1.3-2.7,2.8-3.7,4.6c-1.1,1.8-1.9,3.7-2.4,5.8v26.5h-1.6v-23.5c0-6.1-0.9-10.6-2.7-13.4c-1.8-2.8-4.6-4.3-8.5-4.3    c-1.9,0-3.8,0.4-5.6,1.1c-1.8,0.7-3.4,1.7-4.8,3c-1.4,1.3-2.7,2.8-3.8,4.6c-1.1,1.8-1.9,3.8-2.5,5.9v26.6h-1.6v-42.1h1.6v10.9    c1.8-3.7,4.2-6.5,7-8.5c2.8-2,5.9-3,9.3-3c3.6,0,6.5,1.1,8.8,3.3c2.3,2.2,3.6,5.2,4.1,8.9c4.2-8.2,9.8-12.3,16.9-12.3    c4.4,0,7.6,1.6,9.7,4.7s3.2,8,3.2,14.6V454.3z"/>
    <path d="M686.1,455.1c-6.5,0-11.9-2.3-16.1-6.8l1.2-1.1c2.2,2.1,4.4,3.7,6.8,4.7c2.4,1,5,1.5,8.1,1.5c4.2,0,7.5-0.9,10.1-2.7    c2.6-1.8,3.9-4.3,3.9-7.5c0-1.5-0.3-2.8-1-3.8c-0.6-1-1.6-1.9-2.8-2.6c-1.2-0.7-2.8-1.4-4.6-1.9c-1.8-0.5-3.9-1-6.2-1.6    c-2.3-0.5-4.2-1-5.9-1.5c-1.7-0.5-3.1-1-4.2-1.7c-1.1-0.7-1.9-1.6-2.5-2.6c-0.6-1.1-0.9-2.4-0.9-4.1c0-2.1,0.4-3.9,1.2-5.4    c0.8-1.5,1.9-2.7,3.2-3.7c1.4-1,2.9-1.7,4.7-2.2c1.8-0.5,3.7-0.7,5.7-0.7c3.4,0,6.3,0.6,8.7,1.7c2.4,1.2,4.1,2.6,5,4.3l-1.5,0.6    c-1-1.7-2.7-2.9-5-3.8c-2.3-0.9-4.8-1.3-7.5-1.3c-1.7,0-3.4,0.2-5,0.6c-1.6,0.4-3,1-4.1,1.8c-1.2,0.8-2.1,1.9-2.8,3.1    c-0.7,1.3-1,2.8-1,4.6c0,1.4,0.2,2.6,0.7,3.5c0.5,0.9,1.2,1.6,2.2,2.2c1,0.6,2.2,1.1,3.7,1.5c1.5,0.4,3.3,0.9,5.4,1.4    c2.5,0.6,4.7,1.2,6.8,1.7s3.7,1.2,5.1,2c1.4,0.8,2.4,1.8,3.2,3c0.8,1.2,1.1,2.7,1.1,4.5c0,1.8-0.4,3.5-1.1,5    c-0.8,1.5-1.8,2.8-3.2,3.8c-1.4,1.1-3,1.9-5,2.4C690.6,454.8,688.5,455.1,686.1,455.1z"/>
  </symbol>
  <symbol id="markB" viewBox="0 0 127.55 101.32424">
    <path d="m 55.966797,25.609375 -10.640625,0.03125 -6.308594,10.896484 -17.578125,-0.04687 -2.6875,4.667969 2.640625,4.554688 12.345703,0.03125 -6.214843,10.705078 0.18164,0.308593 H 38.007812 L 55.982422,25.625 Z"/>
    <path d="m 47.628906,42.074219 -5.296875,9.224609 3.140625,5.458984 h 10.640625 l -8.46875,-14.666015 z"/>
    <path d="M 84.60094,40.063078 61.535294,0.09657632 72.142594,0 78.307382,10.736068 84.488267,0.06438422 h 5.26341 c 0,0 2.704137,4.66785568 2.704137,4.66785568 L 83.61908,19.926915 89.896541,30.840039 Z"/>
    <path d="m 74.412137,24.482098 h -46.13129 c 0,0 5.215121,-9.239135 5.215121,-9.239135 L 45.873834,15.275155 39.725141,4.5712793 42.348798,0 h 5.392178 c 0,0 8.740157,15.242963 8.740157,15.242963 l 12.587114,0.03219 z"/>
    <path d="m 76.230991,56.513246 23.065646,-39.950406 5.392173,9.126462 -6.213072,10.703876 12.345672,0.03219 2.63975,4.555183 -2.68804,4.667856 -17.576888,-0.04829 -6.309653,10.897029 -10.639491,0.03219 z"/>
    <path d="m 2.04,58.559895 h 3.49 l 4.48,7.13 1.08,-7.13 h 3.68 l -2.04,13.48 H 9.45 l -4.65,-7.4 -1.12,7.4 H 0 Z"/>
    <path d="m 17.95,58.559895 h 3.76 l -2.04,13.48 h -3.76 z"/>
    <path d="m 27.14,65.179895 -3.43,-6.63 h 4.3 l 1.81,3.79 2.98,-3.79 H 37 l -5.43,6.59 3.58,6.89 h -4.3 l -1.97,-4.06 -3.21,4.06 h -4.2 l 5.66,-6.86 z"/>
    <path d="m 42.86,72.309895 c -0.96,0 -1.84,-0.17 -2.64,-0.52 -0.8,-0.35 -1.46,-0.83 -1.99,-1.46 -0.53,-0.62 -0.91,-1.36 -1.15,-2.21 -0.24,-0.85 -0.28,-1.78 -0.13,-2.78 v -0.04 c 0.15,-0.97 0.47,-1.89 0.96,-2.74 0.49,-0.85 1.09,-1.6 1.82,-2.23 0.72,-0.64 1.55,-1.13 2.47,-1.49 0.92,-0.36 1.9,-0.54 2.92,-0.54 0.69,0 1.31,0.07 1.86,0.2 0.54,0.13 1.03,0.33 1.46,0.58 0.43,0.25 0.81,0.55 1.14,0.9 0.33,0.35 0.61,0.72 0.84,1.13 l -3.14,2.18 c -0.31,-0.49 -0.68,-0.87 -1.1,-1.16 -0.42,-0.29 -0.96,-0.42 -1.61,-0.42 -0.47,0 -0.92,0.09 -1.34,0.28 -0.42,0.19 -0.8,0.44 -1.13,0.76 -0.33,0.32 -0.61,0.7 -0.84,1.14 -0.23,0.44 -0.38,0.9 -0.45,1.38 v 0.04 c -0.08,0.5 -0.07,0.97 0.02,1.42 0.09,0.44 0.26,0.83 0.49,1.15 0.23,0.32 0.53,0.57 0.9,0.76 0.36,0.19 0.78,0.28 1.26,0.28 0.35,0 0.67,-0.04 0.97,-0.12 0.3,-0.08 0.58,-0.19 0.84,-0.34 0.26,-0.15 0.51,-0.32 0.75,-0.52 0.24,-0.2 0.48,-0.42 0.73,-0.66 l 2.51,2 c -0.39,0.44 -0.8,0.84 -1.23,1.21 -0.43,0.37 -0.91,0.69 -1.44,0.96 -0.52,0.27 -1.09,0.48 -1.71,0.64 -0.62,0.15 -1.3,0.23 -2.05,0.23 z"/>
    <path d="m 57.49,58.459895 h 3.6 l 3.69,13.58 h -4.01 l -0.62,-2.41 h -5.2 l -1.33,2.41 h -3.93 l 7.79,-13.58 z m 2.02,8.28 -0.92,-3.83 -2.1,3.83 z"/>
    <path d="m 68.56,58.559895 h 5.2 c 1.21,0 2.26,0.17 3.15,0.49 0.89,0.33 1.62,0.79 2.18,1.38 0.56,0.59 0.95,1.29 1.16,2.11 0.22,0.82 0.25,1.71 0.1,2.69 v 0.04 c -0.15,0.98 -0.46,1.88 -0.93,2.71 -0.47,0.83 -1.08,1.54 -1.83,2.15 -0.75,0.6 -1.62,1.07 -2.63,1.41 -1.01,0.34 -2.12,0.51 -3.32,0.51 h -5.12 l 2.04,-13.48 z m 3.73,10.17 c 1.12,0 2.07,-0.3 2.84,-0.89 0.77,-0.59 1.24,-1.43 1.41,-2.52 v -0.04 c 0.17,-1.08 -0.05,-1.92 -0.64,-2.51 -0.59,-0.6 -1.45,-0.89 -2.57,-0.89 H 71.8 l -1.04,6.86 h 1.53 z"/>
    <path d="m 83.86,58.559895 h 10.83 l -0.48,3.18 h -7.15 l -0.31,2.04 h 6.47 l -0.45,2.95 H 86.3 l -0.32,2.14 h 7.24 l -0.48,3.18 H 81.82 l 2.04,-13.48 z"/>
    <path d="m 97.55,58.559895 h 3.95 l 2.43,5.22 4.01,-5.22 h 3.95 l -2.04,13.48 h -3.72 l 1.17,-7.74 -4.24,5.28 h -0.08 l -2.63,-5.24 -1.17,7.71 H 95.5 l 2.04,-13.48 z"/>
    <path d="m 117.39,66.999895 -3.85,-8.44 h 4.26 l 2.03,4.91 3.54,-4.91 h 4.18 l -6.39,8.38 -0.77,5.1 h -3.76 l 0.76,-5.05 z"/>
    <path d="m 26.98,76.679895 h 3.72 v 0.52 h -3.14 v 1.77 h 2.81 v 0.52 h -2.81 v 1.81 h 3.18 v 0.52 h -3.76 v -5.15 z"/>
    <path d="m 33.93,79.199895 -1.91,-2.52 h 0.68 l 1.58,2.11 1.57,-2.11 h 0.68 l -1.91,2.52 1.98,2.63 h -0.69 l -1.65,-2.21 -1.65,2.21 h -0.67 l 1.98,-2.63 z"/>
    <path d="m 37.96,76.679895 h 1.93 c 0.29,0 0.55,0.04 0.79,0.12 0.24,0.08 0.44,0.18 0.61,0.32 0.17,0.14 0.3,0.31 0.39,0.51 0.09,0.2 0.14,0.43 0.14,0.69 v 0 c 0,0.29 -0.05,0.54 -0.16,0.75 -0.11,0.21 -0.25,0.38 -0.44,0.53 -0.18,0.14 -0.4,0.25 -0.64,0.32 -0.25,0.07 -0.5,0.11 -0.78,0.11 h -1.25 v 1.82 h -0.58 v -5.15 z m 1.86,2.81 c 0.21,0 0.4,-0.03 0.58,-0.08 0.18,-0.05 0.32,-0.13 0.45,-0.23 0.12,-0.1 0.22,-0.22 0.29,-0.36 0.07,-0.14 0.1,-0.29 0.1,-0.46 v 0 c 0,-0.38 -0.13,-0.66 -0.38,-0.85 -0.25,-0.19 -0.59,-0.29 -1.01,-0.29 h -1.31 v 2.27 z"/>
    <path d="m 43.21,76.679895 h 3.72 v 0.52 h -3.14 v 1.77 h 2.81 v 0.52 h -2.81 v 1.81 h 3.18 v 0.52 h -3.76 v -5.15 z"/>
    <path d="m 48.42,76.679895 h 2.21 c 0.32,0 0.6,0.05 0.85,0.14 0.25,0.09 0.45,0.22 0.61,0.38 0.13,0.13 0.23,0.28 0.29,0.45 0.06,0.17 0.1,0.36 0.1,0.57 v 0 c 0,0.23 -0.04,0.42 -0.1,0.59 -0.07,0.17 -0.17,0.32 -0.29,0.44 -0.12,0.12 -0.27,0.23 -0.44,0.31 -0.17,0.08 -0.36,0.14 -0.56,0.17 l 1.58,2.1 h -0.71 l -1.49,-2 H 49 v 2 h -0.58 z m 2.17,2.63 c 0.19,0 0.37,-0.02 0.53,-0.07 0.16,-0.05 0.3,-0.12 0.42,-0.21 0.12,-0.09 0.21,-0.2 0.28,-0.33 0.07,-0.13 0.1,-0.28 0.1,-0.45 v -0.02 c 0,-0.32 -0.12,-0.57 -0.35,-0.75 -0.23,-0.18 -0.56,-0.27 -0.97,-0.27 h -1.59 v 2.09 h 1.59 z"/>
    <path d="m 55.36,77.219895 h -1.73 v -0.54 h 4.04 v 0.54 h -1.73 v 4.61 h -0.58 z"/>
    <path d="m 61.08,76.679895 h 3.72 v 0.52 h -3.14 v 1.77 h 2.81 v 0.52 h -2.81 v 1.81 h 3.18 v 0.52 h -3.76 v -5.15 z"/>
    <path d="m 66.29,76.679895 h 1.79 c 0.4,0 0.77,0.07 1.11,0.2 0.34,0.13 0.63,0.31 0.87,0.54 0.24,0.23 0.43,0.5 0.56,0.81 0.13,0.31 0.2,0.65 0.2,1.01 v 0.02 c 0,0.36 -0.07,0.7 -0.2,1.02 -0.13,0.31 -0.32,0.59 -0.56,0.82 -0.24,0.23 -0.53,0.41 -0.87,0.54 -0.34,0.13 -0.71,0.2 -1.11,0.2 h -1.79 v -5.15 z m 1.79,4.61 c 0.32,0 0.62,-0.05 0.88,-0.15 0.26,-0.1 0.49,-0.24 0.67,-0.43 0.18,-0.19 0.33,-0.4 0.43,-0.64 0.1,-0.24 0.15,-0.51 0.15,-0.8 v 0 c 0,-0.3 -0.05,-0.56 -0.15,-0.81 -0.1,-0.25 -0.24,-0.46 -0.43,-0.65 -0.18,-0.19 -0.41,-0.33 -0.67,-0.44 -0.27,-0.11 -0.56,-0.16 -0.88,-0.16 h -1.21 v 4.08 z"/>
    <path d="m 74.45,81.909895 c -0.32,0 -0.61,-0.05 -0.87,-0.14 -0.26,-0.1 -0.49,-0.24 -0.68,-0.43 -0.19,-0.19 -0.33,-0.42 -0.44,-0.7 -0.1,-0.28 -0.15,-0.6 -0.15,-0.96 v -3 h 0.58 v 2.96 c 0,0.56 0.14,0.99 0.42,1.29 0.28,0.3 0.66,0.45 1.16,0.45 0.5,0 0.85,-0.14 1.13,-0.43 0.28,-0.28 0.42,-0.71 0.42,-1.27 v -3 h 0.58 v 2.95 c 0,0.38 -0.05,0.71 -0.15,0.99 -0.1,0.29 -0.25,0.52 -0.44,0.71 -0.19,0.19 -0.42,0.33 -0.68,0.43 -0.26,0.1 -0.56,0.14 -0.88,0.14 z"/>
    <path d="m 80.7,81.919895 c -0.37,0 -0.72,-0.07 -1.03,-0.21 -0.31,-0.14 -0.59,-0.32 -0.82,-0.56 -0.23,-0.24 -0.41,-0.52 -0.54,-0.84 -0.13,-0.32 -0.2,-0.67 -0.2,-1.04 v 0 c 0,-0.38 0.07,-0.72 0.2,-1.04 0.13,-0.32 0.31,-0.61 0.54,-0.85 0.23,-0.24 0.5,-0.43 0.82,-0.57 0.32,-0.14 0.67,-0.21 1.04,-0.21 0.24,0 0.45,0.02 0.64,0.06 0.19,0.04 0.36,0.1 0.53,0.17 0.16,0.07 0.31,0.16 0.45,0.26 0.14,0.1 0.27,0.21 0.4,0.33 l -0.4,0.43 c -0.22,-0.21 -0.46,-0.38 -0.71,-0.51 -0.25,-0.13 -0.56,-0.2 -0.91,-0.2 -0.29,0 -0.55,0.05 -0.79,0.16 -0.24,0.11 -0.45,0.26 -0.63,0.45 -0.18,0.19 -0.32,0.42 -0.42,0.67 -0.1,0.26 -0.15,0.53 -0.15,0.83 v 0.02 c 0,0.3 0.05,0.58 0.15,0.83 0.1,0.26 0.24,0.48 0.42,0.67 0.18,0.19 0.39,0.34 0.63,0.45 0.24,0.11 0.51,0.16 0.79,0.16 0.35,0 0.66,-0.06 0.91,-0.19 0.25,-0.13 0.5,-0.31 0.75,-0.55 l 0.38,0.38 c -0.13,0.14 -0.27,0.26 -0.42,0.37 -0.14,0.11 -0.3,0.21 -0.47,0.28 -0.17,0.08 -0.35,0.14 -0.54,0.19 -0.19,0.04 -0.4,0.06 -0.64,0.06 z"/>
    <path d="m 86.06,76.649895 h 0.54 l 2.35,5.19 h -0.63 l -0.6,-1.36 h -2.8 l -0.61,1.36 h -0.6 z m 1.43,3.3 -1.17,-2.63 -1.18,2.63 z"/>
    <path d="m 91.02,77.219895 h -1.73 v -0.54 h 4.04 v 0.54 H 91.6 v 4.61 h -0.58 z"/>
    <path d="m 94.73,76.679895 h 0.58 v 5.15 h -0.58 z"/>
    <path d="m 99.56,81.919895 c -0.39,0 -0.75,-0.07 -1.07,-0.21 -0.32,-0.14 -0.6,-0.33 -0.83,-0.58 -0.23,-0.24 -0.41,-0.53 -0.53,-0.85 -0.12,-0.32 -0.19,-0.66 -0.19,-1.01 v 0 c 0,-0.37 0.06,-0.71 0.19,-1.03 0.13,-0.32 0.31,-0.61 0.54,-0.85 0.23,-0.24 0.51,-0.44 0.83,-0.58 0.32,-0.14 0.68,-0.22 1.07,-0.22 0.39,0 0.75,0.07 1.07,0.21 0.32,0.14 0.6,0.34 0.83,0.58 0.23,0.24 0.41,0.53 0.53,0.85 0.12,0.32 0.19,0.66 0.19,1.01 0,0 0,0 0,0.02 0,0.35 -0.06,0.69 -0.19,1.02 -0.13,0.32 -0.31,0.61 -0.54,0.85 -0.23,0.24 -0.51,0.44 -0.83,0.58 -0.32,0.14 -0.68,0.22 -1.07,0.22 z m 0.01,-0.54 c 0.29,0 0.57,-0.05 0.81,-0.16 0.25,-0.11 0.46,-0.26 0.64,-0.45 0.18,-0.19 0.31,-0.41 0.42,-0.67 0.1,-0.25 0.15,-0.53 0.15,-0.82 v 0 c 0,-0.31 -0.05,-0.58 -0.15,-0.84 -0.1,-0.26 -0.24,-0.48 -0.42,-0.67 -0.18,-0.19 -0.4,-0.34 -0.64,-0.46 -0.25,-0.11 -0.52,-0.17 -0.81,-0.17 -0.29,0 -0.57,0.05 -0.81,0.17 -0.25,0.11 -0.46,0.26 -0.64,0.45 -0.18,0.19 -0.32,0.41 -0.42,0.67 -0.1,0.26 -0.15,0.53 -0.15,0.82 v 0.02 c 0,0.29 0.05,0.57 0.15,0.83 0.1,0.26 0.24,0.48 0.42,0.67 0.18,0.19 0.4,0.34 0.64,0.46 0.25,0.11 0.52,0.17 0.81,0.17 z"/>
    <path d="m 103.78,76.679895 h 0.54 l 3.25,4.13 v -4.13 h 0.57 v 5.15 h -0.46 l -3.33,-4.22 v 4.22 h -0.57 z"/>
  </symbol>
  </defs>
  <rect class="bg" x="0" y="0" width="3840" height="2160"/>
  <g class="logo" transform="rotate(-35 1920 1080)">
    <use href="#markA" x="-655.0" y="-1495.0" width="300.99" height="196.12"/>
    <use href="#markB" x="-286.38" y="-1495.0" width="265.73" height="211.09"/>
    <use href="#markA" x="46.99" y="-1495.0" width="300.99" height="196.12"/>
    <use href="#markB" x="415.61" y="-1495.0" width="265.73" height="211.09"/>
    <use href="#markA" x="748.97" y="-1495.0" width="300.99" height="196.12"/>
    <use href="#markB" x="1117.6" y="-1495.0" width="265.73" height="211.09"/>
    <use href="#markA" x="1450.96" y="-1495.0" width="300.99" height="196.12"/>
    <use href="#markB" x="1819.58" y="-1495.0" width="265.73" height="211.09"/>
    <use href="#markA" x="2152.94" y="-1495.0" width="300.99" height="196.12"/>
    <use href="#markB" x="2521.57" y="-1495.0" width="265.73" height="211.09"/>
    <use href="#markA" x="2854.93" y="-1495.0" width="300.99" height="196.12"/>
    <use href="#markB" x="3223.55" y="-1495.0" width="265.73" height="211.09"/>
    <use href="#markA" x="3556.91" y="-1495.0" width="300.99" height="196.12"/>
    <use href="#markB" x="3925.54" y="-1495.0" width="265.73" height="211.09"/>
    <use href="#markA" x="4258.9" y="-1495.0" width="300.99" height="196.12"/>
    <use href="#markB" x="4627.52" y="-1495.0" width="265.73" height="211.09"/>
    <use href="#markB" x="-637.37" y="-1233.91" width="265.73" height="211.09"/>
    <use href="#markA" x="-304.01" y="-1233.91" width="300.99" height="196.12"/>
    <use href="#markB" x="64.62" y="-1233.91" width="265.73" height="211.09"/>
    <use href="#markA" x="397.98" y="-1233.91" width="300.99" height="196.12"/>
    <use href="#markB" x="766.6" y="-1233.91" width="265.73" height="211.09"/>
    <use href="#markA" x="1099.96" y="-1233.91" width="300.99" height="196.12"/>
    <use href="#markB" x="1468.59" y="-1233.91" width="265.73" height="211.09"/>
    <use href="#markA" x="1801.95" y="-1233.91" width="300.99" height="196.12"/>
    <use href="#markB" x="2170.57" y="-1233.91" width="265.73" height="211.09"/>
    <use href="#markA" x="2503.94" y="-1233.91" width="300.99" height="196.12"/>
    <use href="#markB" x="2872.56" y="-1233.91" width="265.73" height="211.09"/>
    <use href="#markA" x="3205.92" y="-1233.91" width="300.99" height="196.12"/>
    <use href="#markB" x="3574.55" y="-1233.91" width="265.73" height="211.09"/>
    <use href="#markA" x="3907.91" y="-1233.91" width="300.99" height="196.12"/>
    <use href="#markB" x="4276.53" y="-1233.91" width="265.73" height="211.09"/>
    <use href="#markA" x="4609.89" y="-1233.91" width="300.99" height="196.12"/>
    <use href="#markA" x="-655.0" y="-972.82" width="300.99" height="196.12"/>
    <use href="#markB" x="-286.38" y="-972.82" width="265.73" height="211.09"/>
    <use href="#markA" x="46.99" y="-972.82" width="300.99" height="196.12"/>
    <use href="#markB" x="415.61" y="-972.82" width="265.73" height="211.09"/>
    <use href="#markA" x="748.97" y="-972.82" width="300.99" height="196.12"/>
    <use href="#markB" x="1117.6" y="-972.82" width="265.73" height="211.09"/>
    <use href="#markA" x="1450.96" y="-972.82" width="300.99" height="196.12"/>
    <use href="#markB" x="1819.58" y="-972.82" width="265.73" height="211.09"/>
    <use href="#markA" x="2152.94" y="-972.82" width="300.99" height="196.12"/>
    <use href="#markB" x="2521.57" y="-972.82" width="265.73" height="211.09"/>
    <use href="#markA" x="2854.93" y="-972.82" width="300.99" height="196.12"/>
    <use href="#markB" x="3223.55" y="-972.82" width="265.73" height="211.09"/>
    <use href="#markA" x="3556.91" y="-972.82" width="300.99" height="196.12"/>
    <use href="#markB" x="3925.54" y="-972.82" width="265.73" height="211.09"/>
    <use href="#markA" x="4258.9" y="-972.82" width="300.99" height="196.12"/>
    <use href="#markB" x="4627.52" y="-972.82" width="265.73" height="211.09"/>
    <use href="#markB" x="-637.37" y="-711.72" width="265.73" height="211.09"/>
    <use href="#markA" x="-304.01" y="-711.72" width="300.99" height="196.12"/>
    <use href="#markB" x="64.62" y="-711.72" width="265.73" height="211.09"/>
    <use href="#markA" x="397.98" y="-711.72" width="300.99" height="196.12"/>
    <use href="#markB" x="766.6" y="-711.72" width="265.73" height="211.09"/>
    <use href="#markA" x="1099.96" y="-711.72" width="300.99" height="196.12"/>
    <use href="#markB" x="1468.59" y="-711.72" width="265.73" height="211.09"/>
    <use href="#markA" x="1801.95" y="-711.72" width="300.99" height="196.12"/>
    <use href="#markB" x="2170.57" y="-711.72" width="265.73" height="211.09"/>
    <use href="#markA" x="2503.94" y="-711.72" width="300.99" height="196.12"/>
    <use href="#markB" x="2872.56" y="-711.72" width="265.73" height="211.09"/>
    <use href="#markA" x="3205.92" y="-711.72" width="300.99" height="196.12"/>
    <use href="#markB" x="3574.55" y="-711.72" width="265.73" height="211.09"/>
    <use href="#markA" x="3907.91" y="-711.72" width="300.99" height="196.12"/>
    <use href="#markB" x="4276.53" y="-711.72" width="265.73" height="211.09"/>
    <use href="#markA" x="4609.89" y="-711.72" width="300.99" height="196.12"/>
    <use href="#markA" x="-655.0" y="-450.63" width="300.99" height="196.12"/>
    <use href="#markB" x="-286.38" y="-450.63" width="265.73" height="211.09"/>
    <use href="#markA" x="46.99" y="-450.63" width="300.99" height="196.12"/>
    <use href="#markB" x="415.61" y="-450.63" width="265.73" height="211.09"/>
    <use href="#markA" x="748.97" y="-450.63" width="300.99" height="196.12"/>
    <use href="#markB" x="1117.6" y="-450.63" width="265.73" height="211.09"/>
    <use href="#markA" x="1450.96" y="-450.63" width="300.99" height="196.12"/>
    <use href="#markB" x="1819.58" y="-450.63" width="265.73" height="211.09"/>
    <use href="#markA" x="2152.94" y="-450.63" width="300.99" height="196.12"/>
    <use href="#markB" x="2521.57" y="-450.63" width="265.73" height="211.09"/>
    <use href="#markA" x="2854.93" y="-450.63" width="300.99" height="196.12"/>
    <use href="#markB" x="3223.55" y="-450.63" width="265.73" height="211.09"/>
    <use href="#markA" x="3556.91" y="-450.63" width="300.99" height="196.12"/>
    <use href="#markB" x="3925.54" y="-450.63" width="265.73" height="211.09"/>
    <use href="#markA" x="4258.9" y="-450.63" width="300.99" height="196.12"/>
    <use href="#markB" x="4627.52" y="-450.63" width="265.73" height="211.09"/>
    <use href="#markB" x="-637.37" y="-189.54" width="265.73" height="211.09"/>
    <use href="#markA" x="-304.01" y="-189.54" width="300.99" height="196.12"/>
    <use href="#markB" x="64.62" y="-189.54" width="265.73" height="211.09"/>
    <use href="#markA" x="397.98" y="-189.54" width="300.99" height="196.12"/>
    <use href="#markB" x="766.6" y="-189.54" width="265.73" height="211.09"/>
    <use href="#markA" x="1099.96" y="-189.54" width="300.99" height="196.12"/>
    <use href="#markB" x="1468.59" y="-189.54" width="265.73" height="211.09"/>
    <use href="#markA" x="1801.95" y="-189.54" width="300.99" height="196.12"/>
    <use href="#markB" x="2170.57" y="-189.54" width="265.73" height="211.09"/>
    <use href="#markA" x="2503.94" y="-189.54" width="300.99" height="196.12"/>
    <use href="#markB" x="2872.56" y="-189.54" width="265.73" height="211.09"/>
    <use href="#markA" x="3205.92" y="-189.54" width="300.99" height="196.12"/>
    <use href="#markB" x="3574.55" y="-189.54" width="265.73" height="211.09"/>
    <use href="#markA" x="3907.91" y="-189.54" width="300.99" height="196.12"/>
    <use href="#markB" x="4276.53" y="-189.54" width="265.73" height="211.09"/>
    <use href="#markA" x="4609.89" y="-189.54" width="300.99" height="196.12"/>
    <use href="#markA" x="-655.0" y="71.55" width="300.99" height="196.12"/>
    <use href="#markB" x="-286.38" y="71.55" width="265.73" height="211.09"/>
    <use href="#markA" x="46.99" y="71.55" width="300.99" height="196.12"/>
    <use href="#markB" x="415.61" y="71.55" width="265.73" height="211.09"/>
    <use href="#markA" x="748.97" y="71.55" width="300.99" height="196.12"/>
    <use href="#markB" x="1117.6" y="71.55" width="265.73" height="211.09"/>
    <use href="#markA" x="1450.96" y="71.55" width="300.99" height="196.12"/>
    <use href="#markB" x="1819.58" y="71.55" width="265.73" height="211.09"/>
    <use href="#markA" x="2152.94" y="71.55" width="300.99" height="196.12"/>
    <use href="#markB" x="2521.57" y="71.55" width="265.73" height="211.09"/>
    <use href="#markA" x="2854.93" y="71.55" width="300.99" height="196.12"/>
    <use href="#markB" x="3223.55" y="71.55" width="265.73" height="211.09"/>
    <use href="#markA" x="3556.91" y="71.55" width="300.99" height="196.12"/>
    <use href="#markB" x="3925.54" y="71.55" width="265.73" height="211.09"/>
    <use href="#markA" x="4258.9" y="71.55" width="300.99" height="196.12"/>
    <use href="#markB" x="4627.52" y="71.55" width="265.73" height="211.09"/>
    <use href="#markB" x="-637.37" y="332.65" width="265.73" height="211.09"/>
    <use href="#markA" x="-304.01" y="332.65" width="300.99" height="196.12"/>
    <use href="#markB" x="64.62" y="332.65" width="265.73" height="211.09"/>
    <use href="#markA" x="397.98" y="332.65" width="300.99" height="196.12"/>
    <use href="#markB" x="766.6" y="332.65" width="265.73" height="211.09"/>
    <use href="#markA" x="1099.96" y="332.65" width="300.99" height="196.12"/>
    <use href="#markB" x="1468.59" y="332.65" width="265.73" height="211.09"/>
    <use href="#markA" x="1801.95" y="332.65" width="300.99" height="196.12"/>
    <use href="#markB" x="2170.57" y="332.65" width="265.73" height="211.09"/>
    <use href="#markA" x="2503.94" y="332.65" width="300.99" height="196.12"/>
    <use href="#markB" x="2872.56" y="332.65" width="265.73" height="211.09"/>
    <use href="#markA" x="3205.92" y="332.65" width="300.99" height="196.12"/>
    <use href="#markB" x="3574.55" y="332.65" width="265.73" height="211.09"/>
    <use href="#markA" x="3907.91" y="332.65" width="300.99" height="196.12"/>
    <use href="#markB" x="4276.53" y="332.65" width="265.73" height="211.09"/>
    <use href="#markA" x="4609.89" y="332.65" width="300.99" height="196.12"/>
    <use href="#markA" x="-655.0" y="593.74" width="300.99" height="196.12"/>
    <use href="#markB" x="-286.38" y="593.74" width="265.73" height="211.09"/>
    <use href="#markA" x="46.99" y="593.74" width="300.99" height="196.12"/>
    <use href="#markB" x="415.61" y="593.74" width="265.73" height="211.09"/>
    <use href="#markA" x="748.97" y="593.74" width="300.99" height="196.12"/>
    <use href="#markB" x="1117.6" y="593.74" width="265.73" height="211.09"/>
    <use href="#markA" x="1450.96" y="593.74" width="300.99" height="196.12"/>
    <use href="#markB" x="1819.58" y="593.74" width="265.73" height="211.09"/>
    <use href="#markA" x="2152.94" y="593.74" width="300.99" height="196.12"/>
    <use href="#markB" x="2521.57" y="593.74" width="265.73" height="211.09"/>
    <use href="#markA" x="2854.93" y="593.74" width="300.99" height="196.12"/>
    <use href="#markB" x="3223.55" y="593.74" width="265.73" height="211.09"/>
    <use href="#markA" x="3556.91" y="593.74" width="300.99" height="196.12"/>
    <use href="#markB" x="3925.54" y="593.74" width="265.73" height="211.09"/>
    <use href="#markA" x="4258.9" y="593.74" width="300.99" height="196.12"/>
    <use href="#markB" x="4627.52" y="593.74" width="265.73" height="211.09"/>
    <use href="#markB" x="-637.37" y="854.83" width="265.73" height="211.09"/>
    <use href="#markA" x="-304.01" y="854.83" width="300.99" height="196.12"/>
    <use href="#markB" x="64.62" y="854.83" width="265.73" height="211.09"/>
    <use href="#markA" x="397.98" y="854.83" width="300.99" height="196.12"/>
    <use href="#markB" x="766.6" y="854.83" width="265.73" height="211.09"/>
    <use href="#markA" x="1099.96" y="854.83" width="300.99" height="196.12"/>
    <use href="#markB" x="1468.59" y="854.83" width="265.73" height="211.09"/>
    <use href="#markA" x="1801.95" y="854.83" width="300.99" height="196.12"/>
    <use href="#markB" x="2170.57" y="854.83" width="265.73" height="211.09"/>
    <use href="#markA" x="2503.94" y="854.83" width="300.99" height="196.12"/>
    <use href="#markB" x="2872.56" y="854.83" width="265.73" height="211.09"/>
    <use href="#markA" x="3205.92" y="854.83" width="300.99" height="196.12"/>
    <use href="#markB" x="3574.55" y="854.83" width="265.73" height="211.09"/>
    <use href="#markA" x="3907.91" y="854.83" width="300.99" height="196.12"/>
    <use href="#markB" x="4276.53" y="854.83" width="265.73" height="211.09"/>
    <use href="#markA" x="4609.89" y="854.83" width="300.99" height="196.12"/>
    <use href="#markA" x="-655.0" y="1115.92" width="300.99" height="196.12"/>
    <use href="#markB" x="-286.38" y="1115.92" width="265.73" height="211.09"/>
    <use href="#markA" x="46.99" y="1115.92" width="300.99" height="196.12"/>
    <use href="#markB" x="415.61" y="1115.92" width="265.73" height="211.09"/>
    <use href="#markA" x="748.97" y="1115.92" width="300.99" height="196.12"/>
    <use href="#markB" x="1117.6" y="1115.92" width="265.73" height="211.09"/>
    <use href="#markA" x="1450.96" y="1115.92" width="300.99" height="196.12"/>
    <use href="#markB" x="1819.58" y="1115.92" width="265.73" height="211.09"/>
    <use href="#markA" x="2152.94" y="1115.92" width="300.99" height="196.12"/>
    <use href="#markB" x="2521.57" y="1115.92" width="265.73" height="211.09"/>
    <use href="#markA" x="2854.93" y="1115.92" width="300.99" height="196.12"/>
    <use href="#markB" x="3223.55" y="1115.92" width="265.73" height="211.09"/>
    <use href="#markA" x="3556.91" y="1115.92" width="300.99" height="196.12"/>
    <use href="#markB" x="3925.54" y="1115.92" width="265.73" height="211.09"/>
    <use href="#markA" x="4258.9" y="1115.92" width="300.99" height="196.12"/>
    <use href="#markB" x="4627.52" y="1115.92" width="265.73" height="211.09"/>
    <use href="#markB" x="-637.37" y="1377.01" width="265.73" height="211.09"/>
    <use href="#markA" x="-304.01" y="1377.01" width="300.99" height="196.12"/>
    <use href="#markB" x="64.62" y="1377.01" width="265.73" height="211.09"/>
    <use href="#markA" x="397.98" y="1377.01" width="300.99" height="196.12"/>
    <use href="#markB" x="766.6" y="1377.01" width="265.73" height="211.09"/>
    <use href="#markA" x="1099.96" y="1377.01" width="300.99" height="196.12"/>
    <use href="#markB" x="1468.59" y="1377.01" width="265.73" height="211.09"/>
    <use href="#markA" x="1801.95" y="1377.01" width="300.99" height="196.12"/>
    <use href="#markB" x="2170.57" y="1377.01" width="265.73" height="211.09"/>
    <use href="#markA" x="2503.94" y="1377.01" width="300.99" height="196.12"/>
    <use href="#markB" x="2872.56" y="1377.01" width="265.73" height="211.09"/>
    <use href="#markA" x="3205.92" y="1377.01" width="300.99" height="196.12"/>
    <use href="#markB" x="3574.55" y="1377.01" width="265.73" height="211.09"/>
    <use href="#markA" x="3907.91" y="1377.01" width="300.99" height="196.12"/>
    <use href="#markB" x="4276.53" y="1377.01" width="265.73" height="211.09"/>
    <use href="#markA" x="4609.89" y="1377.01" width="300.99" height="196.12"/>
    <use href="#markA" x="-655.0" y="1638.11" width="300.99" height="196.12"/>
    <use href="#markB" x="-286.38" y="1638.11" width="265.73" height="211.09"/>
    <use href="#markA" x="46.99" y="1638.11" width="300.99" height="196.12"/>
    <use href="#markB" x="415.61" y="1638.11" width="265.73" height="211.09"/>
    <use href="#markA" x="748.97" y="1638.11" width="300.99" height="196.12"/>
    <use href="#markB" x="1117.6" y="1638.11" width="265.73" height="211.09"/>
    <use href="#markA" x="1450.96" y="1638.11" width="300.99" height="196.12"/>
    <use href="#markB" x="1819.58" y="1638.11" width="265.73" height="211.09"/>
    <use href="#markA" x="2152.94" y="1638.11" width="300.99" height="196.12"/>
    <use href="#markB" x="2521.57" y="1638.11" width="265.73" height="211.09"/>
    <use href="#markA" x="2854.93" y="1638.11" width="300.99" height="196.12"/>
    <use href="#markB" x="3223.55" y="1638.11" width="265.73" height="211.09"/>
    <use href="#markA" x="3556.91" y="1638.11" width="300.99" height="196.12"/>
    <use href="#markB" x="3925.54" y="1638.11" width="265.73" height="211.09"/>
    <use href="#markA" x="4258.9" y="1638.11" width="300.99" height="196.12"/>
    <use href="#markB" x="4627.52" y="1638.11" width="265.73" height="211.09"/>
    <use href="#markB" x="-637.37" y="1899.2" width="265.73" height="211.09"/>
    <use href="#markA" x="-304.01" y="1899.2" width="300.99" height="196.12"/>
    <use href="#markB" x="64.62" y="1899.2" width="265.73" height="211.09"/>
    <use href="#markA" x="397.98" y="1899.2" width="300.99" height="196.12"/>
    <use href="#markB" x="766.6" y="1899.2" width="265.73" height="211.09"/>
    <use href="#markA" x="1099.96" y="1899.2" width="300.99" height="196.12"/>
    <use href="#markB" x="1468.59" y="1899.2" width="265.73" height="211.09"/>
    <use href="#markA" x="1801.95" y="1899.2" width="300.99" height="196.12"/>
    <use href="#markB" x="2170.57" y="1899.2" width="265.73" height="211.09"/>
    <use href="#markA" x="2503.94" y="1899.2" width="300.99" height="196.12"/>
    <use href="#markB" x="2872.56" y="1899.2" width="265.73" height="211.09"/>
    <use href="#markA" x="3205.92" y="1899.2" width="300.99" height="196.12"/>
    <use href="#markB" x="3574.55" y="1899.2" width="265.73" height="211.09"/>
    <use href="#markA" x="3907.91" y="1899.2" width="300.99" height="196.12"/>
    <use href="#markB" x="4276.53" y="1899.2" width="265.73" height="211.09"/>
    <use href="#markA" x="4609.89" y="1899.2" width="300.99" height="196.12"/>
    <use href="#markA" x="-655.0" y="2160.29" width="300.99" height="196.12"/>
    <use href="#markB" x="-286.38" y="2160.29" width="265.73" height="211.09"/>
    <use href="#markA" x="46.99" y="2160.29" width="300.99" height="196.12"/>
    <use href="#markB" x="415.61" y="2160.29" width="265.73" height="211.09"/>
    <use href="#markA" x="748.97" y="2160.29" width="300.99" height="196.12"/>
    <use href="#markB" x="1117.6" y="2160.29" width="265.73" height="211.09"/>
    <use href="#markA" x="1450.96" y="2160.29" width="300.99" height="196.12"/>
    <use href="#markB" x="1819.58" y="2160.29" width="265.73" height="211.09"/>
    <use href="#markA" x="2152.94" y="2160.29" width="300.99" height="196.12"/>
    <use href="#markB" x="2521.57" y="2160.29" width="265.73" height="211.09"/>
    <use href="#markA" x="2854.93" y="2160.29" width="300.99" height="196.12"/>
    <use href="#markB" x="3223.55" y="2160.29" width="265.73" height="211.09"/>
    <use href="#markA" x="3556.91" y="2160.29" width="300.99" height="196.12"/>
    <use href="#markB" x="3925.54" y="2160.29" width="265.73" height="211.09"/>
    <use href="#markA" x="4258.9" y="2160.29" width="300.99" height="196.12"/>
    <use href="#markB" x="4627.52" y="2160.29" width="265.73" height="211.09"/>
    <use href="#markB" x="-637.37" y="2421.38" width="265.73" height="211.09"/>
    <use href="#markA" x="-304.01" y="2421.38" width="300.99" height="196.12"/>
    <use href="#markB" x="64.62" y="2421.38" width="265.73" height="211.09"/>
    <use href="#markA" x="397.98" y="2421.38" width="300.99" height="196.12"/>
    <use href="#markB" x="766.6" y="2421.38" width="265.73" height="211.09"/>
    <use href="#markA" x="1099.96" y="2421.38" width="300.99" height="196.12"/>
    <use href="#markB" x="1468.59" y="2421.38" width="265.73" height="211.09"/>
    <use href="#markA" x="1801.95" y="2421.38" width="300.99" height="196.12"/>
    <use href="#markB" x="2170.57" y="2421.38" width="265.73" height="211.09"/>
    <use href="#markA" x="2503.94" y="2421.38" width="300.99" height="196.12"/>
    <use href="#markB" x="2872.56" y="2421.38" width="265.73" height="211.09"/>
    <use href="#markA" x="3205.92" y="2421.38" width="300.99" height="196.12"/>
    <use href="#markB" x="3574.55" y="2421.38" width="265.73" height="211.09"/>
    <use href="#markA" x="3907.91" y="2421.38" width="300.99" height="196.12"/>
    <use href="#markB" x="4276.53" y="2421.38" width="265.73" height="211.09"/>
    <use href="#markA" x="4609.89" y="2421.38" width="300.99" height="196.12"/>
    <use href="#markA" x="-655.0" y="2682.47" width="300.99" height="196.12"/>
    <use href="#markB" x="-286.38" y="2682.47" width="265.73" height="211.09"/>
    <use href="#markA" x="46.99" y="2682.47" width="300.99" height="196.12"/>
    <use href="#markB" x="415.61" y="2682.47" width="265.73" height="211.09"/>
    <use href="#markA" x="748.97" y="2682.47" width="300.99" height="196.12"/>
    <use href="#markB" x="1117.6" y="2682.47" width="265.73" height="211.09"/>
    <use href="#markA" x="1450.96" y="2682.47" width="300.99" height="196.12"/>
    <use href="#markB" x="1819.58" y="2682.47" width="265.73" height="211.09"/>
    <use href="#markA" x="2152.94" y="2682.47" width="300.99" height="196.12"/>
    <use href="#markB" x="2521.57" y="2682.47" width="265.73" height="211.09"/>
    <use href="#markA" x="2854.93" y="2682.47" width="300.99" height="196.12"/>
    <use href="#markB" x="3223.55" y="2682.47" width="265.73" height="211.09"/>
    <use href="#markA" x="3556.91" y="2682.47" width="300.99" height="196.12"/>
    <use href="#markB" x="3925.54" y="2682.47" width="265.73" height="211.09"/>
    <use href="#markA" x="4258.9" y="2682.47" width="300.99" height="196.12"/>
    <use href="#markB" x="4627.52" y="2682.47" width="265.73" height="211.09"/>
    <use href="#markB" x="-637.37" y="2943.57" width="265.73" height="211.09"/>
    <use href="#markA" x="-304.01" y="2943.57" width="300.99" height="196.12"/>
    <use href="#markB" x="64.62" y="2943.57" width="265.73" height="211.09"/>
    <use href="#markA" x="397.98" y="2943.57" width="300.99" height="196.12"/>
    <use href="#markB" x="766.6" y="2943.57" width="265.73" height="211.09"/>
    <use href="#markA" x="1099.96" y="2943.57" width="300.99" height="196.12"/>
    <use href="#markB" x="1468.59" y="2943.57" width="265.73" height="211.09"/>
    <use href="#markA" x="1801.95" y="2943.57" width="300.99" height="196.12"/>
    <use href="#markB" x="2170.57" y="2943.57" width="265.73" height="211.09"/>
    <use href="#markA" x="2503.94" y="2943.57" width="300.99" height="196.12"/>
    <use href="#markB" x="2872.56" y="2943.57" width="265.73" height="211.09"/>
    <use href="#markA" x="3205.92" y="2943.57" width="300.99" height="196.12"/>
    <use href="#markB" x="3574.55" y="2943.57" width="265.73" height="211.09"/>
    <use href="#markA" x="3907.91" y="2943.57" width="300.99" height="196.12"/>
    <use href="#markB" x="4276.53" y="2943.57" width="265.73" height="211.09"/>
    <use href="#markA" x="4609.89" y="2943.57" width="300.99" height="196.12"/>
    <use href="#markA" x="-655.0" y="3204.66" width="300.99" height="196.12"/>
    <use href="#markB" x="-286.38" y="3204.66" width="265.73" height="211.09"/>
    <use href="#markA" x="46.99" y="3204.66" width="300.99" height="196.12"/>
    <use href="#markB" x="415.61" y="3204.66" width="265.73" height="211.09"/>
    <use href="#markA" x="748.97" y="3204.66" width="300.99" height="196.12"/>
    <use href="#markB" x="1117.6" y="3204.66" width="265.73" height="211.09"/>
    <use href="#markA" x="1450.96" y="3204.66" width="300.99" height="196.12"/>
    <use href="#markB" x="1819.58" y="3204.66" width="265.73" height="211.09"/>
    <use href="#markA" x="2152.94" y="3204.66" width="300.99" height="196.12"/>
    <use href="#markB" x="2521.57" y="3204.66" width="265.73" height="211.09"/>
    <use href="#markA" x="2854.93" y="3204.66" width="300.99" height="196.12"/>
    <use href="#markB" x="3223.55" y="3204.66" width="265.73" height="211.09"/>
    <use href="#markA" x="3556.91" y="3204.66" width="300.99" height="196.12"/>
    <use href="#markB" x="3925.54" y="3204.66" width="265.73" height="211.09"/>
    <use href="#markA" x="4258.9" y="3204.66" width="300.99" height="196.12"/>
    <use href="#markB" x="4627.52" y="3204.66" width="265.73" height="211.09"/>
    <use href="#markB" x="-637.37" y="3465.75" width="265.73" height="211.09"/>
    <use href="#markA" x="-304.01" y="3465.75" width="300.99" height="196.12"/>
    <use href="#markB" x="64.62" y="3465.75" width="265.73" height="211.09"/>
    <use href="#markA" x="397.98" y="3465.75" width="300.99" height="196.12"/>
    <use href="#markB" x="766.6" y="3465.75" width="265.73" height="211.09"/>
    <use href="#markA" x="1099.96" y="3465.75" width="300.99" height="196.12"/>
    <use href="#markB" x="1468.59" y="3465.75" width="265.73" height="211.09"/>
    <use href="#markA" x="1801.95" y="3465.75" width="300.99" height="196.12"/>
    <use href="#markB" x="2170.57" y="3465.75" width="265.73" height="211.09"/>
    <use href="#markA" x="2503.94" y="3465.75" width="300.99" height="196.12"/>
    <use href="#markB" x="2872.56" y="3465.75" width="265.73" height="211.09"/>
    <use href="#markA" x="3205.92" y="3465.75" width="300.99" height="196.12"/>
    <use href="#markB" x="3574.55" y="3465.75" width="265.73" height="211.09"/>
    <use href="#markA" x="3907.91" y="3465.75" width="300.99" height="196.12"/>
    <use href="#markB" x="4276.53" y="3465.75" width="265.73" height="211.09"/>
    <use href="#markA" x="4609.89" y="3465.75" width="300.99" height="196.12"/>
    <use href="#markA" x="-655.0" y="3726.84" width="300.99" height="196.12"/>
    <use href="#markB" x="-286.38" y="3726.84" width="265.73" height="211.09"/>
    <use href="#markA" x="46.99" y="3726.84" width="300.99" height="196.12"/>
    <use href="#markB" x="415.61" y="3726.84" width="265.73" height="211.09"/>
    <use href="#markA" x="748.97" y="3726.84" width="300.99" height="196.12"/>
    <use href="#markB" x="1117.6" y="3726.84" width="265.73" height="211.09"/>
    <use href="#markA" x="1450.96" y="3726.84" width="300.99" height="196.12"/>
    <use href="#markB" x="1819.58" y="3726.84" width="265.73" height="211.09"/>
    <use href="#markA" x="2152.94" y="3726.84" width="300.99" height="196.12"/>
    <use href="#markB" x="2521.57" y="3726.84" width="265.73" height="211.09"/>
    <use href="#markA" x="2854.93" y="3726.84" width="300.99" height="196.12"/>
    <use href="#markB" x="3223.55" y="3726.84" width="265.73" height="211.09"/>
    <use href="#markA" x="3556.91" y="3726.84" width="300.99" height="196.12"/>
    <use href="#markB" x="3925.54" y="3726.84" width="265.73" height="211.09"/>
    <use href="#markA" x="4258.9" y="3726.84" width="300.99" height="196.12"/>
    <use href="#markB" x="4627.52" y="3726.84" width="265.73" height="211.09"/>
  </g>
</svg>
